<svg xmlns="http://www.w3.org/2000/svg" enable-background="new 0 0 1600 1200" viewBox="0 0 1600 1200"><g id="Layer_5"><path d="M1040.3 521.7c-2.8 50.3-7.6 104.4-15.5 161.8-8.1 59.5-18.4 114.8-29.8 165.5 5.3 1.7 13 3.5 22.3 3.1 19.3-.9 32.7-10.7 37.8-14.9 8.6-55.6 18.3-112.2 29.1-169.8 1.3-6.7 8.9-34.8 14.3-73.1.9-6.1 1.5-11.1 1.9-14.3 4.7 12.7 11.5 32.5 18.6 57 10.5 36.6 15 61.4 27.3 124.6 4 20.6 10.4 53.2 18.6 94.2 2.5-.5 6.2-1.4 10.5-3.1 15.9-6.2 25.3-17.3 34.7-28.5 4.7-5.6 10.7-13.6 16.7-24.2-19.3-53.1-30.5-98-37.2-130.8-9.8-48-15.4-95.4-19.2-127.7-1.7-14.2-2.9-26-3.7-34.1-4.8 4.2-11.8 9.5-21.1 14.3-16.5 8.5-31 10.3-37.8 11.2-30.3 3.6-55.5-5.8-67.5-11.2zM1055.7 149.8c-.3-1.6-1.3-8 1.1-18.5 3.2-14.1 9.6-23 8.7-23.5-.4-.3-2.3 1.4-9.1 10.5 2.5-7.3 6.1-12.1 8.5-14.7 2.7-3.1 5.2-5.8 9.3-7.1 3.2-1.1 4.4-.3 7.6-1.3 4.9-1.5 7.4-5.2 9.4-6.7 8.7-6.3 24-16.3 25.9-14.3 1.4 1.6-6.6 9.6-4.9 11.6 1.4 1.6 7.2-2.8 13.8-4.5 15.9-4.1 31.8 8.3 34.3 10.3 15.6 12.2 18.6 30.5 21 44.6 1.4 8.6 3.5 22.6-2.2 37.5-.7 1.7-1.4 3.3-7.6 15.2-7.5 14.4-7.6 23.5-12.9 24.5-2.2.4-4.9-.6-5.8-2.2-2-3.5 3.4-10.3 3.6-10.3.2.1-4.3 14.2-12.5 16.5-5.1 1.5-11.5-1.7-20.1-10.3-25.8-25.6-29.2-67.2-37.5-66.5-2.2.2-4.9 3.4-7.4 2.1-1.5-.8-2.3-3.1-2.4-3.4-.8-2.4 0-4-.5-4.2-.7-.3-2.1 2.7-4.9 6.4-3.6 4.6-4.6 4.1-5.8 6.8-.6 1.4-.6 2.2-1.2 9.6-.6 6.8-.6 7.7-1 7.8-1.5.3-5.9-7.4-7.4-15.9z"/><path fill="#ff4f03" d="M793.4 300.4c7.8-10 14.5-12.3 19.3-12.4 10.2-.2 15.9 9.6 28.2 8.9 5.3-.3 9.6-2.4 12.4-4.1-2.5-16.9-3.3-37.9.7-61.2 1-5.6 2.1-10.8 3.4-15.8 38.2-6 81.9-9.7 130-8.3 15.5.5 30.4 1.4 44.7 2.8 2.3 9.6 5 24.2 5.5 42 .6 23.1-3.2 26.9-5.5 54.3-2.8 33.9 2 41.3 0 88.7-.6 13.5-1.4 24.5-2.1 31.6-56.9 2.1-113.7 4.1-170.6 6.2-1.5-11-3.2-22.2-5-33.6-1.5-9.3-3.1-18.4-4.7-27.4 7.7-12.8 9.5-25 4.7-29.4-2.3-2.2-7.1-3.4-8.7-3.8-2.5-.6-6.4-1.6-10.3-.7-6.8 1.6-7.3 7.3-12.4 9.6-8.1 3.7-21.6-3.8-28.2-13.8-9.9-14.9-1.9-32.4-1.4-33.6zM1167.6 345.4c3.5-1.2 13.3-4.1 24.8-.7 8 2.4 13.3 6.8 16.1 9.4l-3.3 29.4c-8.9-5.5-21.7-11.3-37.5-12-2.3-.1-4.5-.1-6.7 0 2.1-8.7 4.3-17.4 6.6-26.1zM1108.7 363.4c4.7-2 6.5-1.3 7.4-.7.6.5 2.4 2.4-2.7 18.7-4.7 15-7 15.8-8 16.1-3.9.8-9.1-3.4-9.4-7.4-.2-3.2 2.9-4.8 6-8.7 2.8-3.3 5.8-8.9 6.7-18zM1046.4 402.5c14.2 2.2 29.9 3.9 46.9 4.4 8.6.3 16.9.3 24.8 0 9.9 6.4 22.9 12.8 38.8 16.1 2.7.6 5.4 1 8 1.3.6 3.8 1.3 11.2-2 19.4-1.4 3.4-3.1 6-4.7 8-14.3 3.1-31.2 5.7-50.2 6.7-25.4 1.3-47.5-.7-65.3-3.6-2.8.4-5.6.7-8.5 1.1-1-2.5-2.1-6.4-2.6-11.1-.6-5.9-1-9.4 1.1-11.6 3.5-3.8 10 .1 13.2-3.7 1.7-2 1-4.4.5-10.6-.3-3.9-.5-9.5 0-16.4zM1155.9 964.2c3-2.9 12.1-11.5 20.2-19 1.2-1.1 3.2-3 5.9-5.4 4.1-3.6 7.5-6.2 9.5-7.7 9.4-7.2 15.3-11.5 23.8-13.7 5.8-1.4 9.8-2.5 13.6-.3 8.2 4.6 7.6 20 7.5 23.8-.1 3.8-.8 7-1.3 9.2-2.6 1-5.8 2.3-9.6 3.6-2.7.9-8.4 3.8-16.1 4.8-17.1 2.2-13.8 3.6-26.8 4.8-6.9.5-16 .9-26.7-.1zM933.8 947.6c-.3-1.2 2.2-2.6 22.9-14.9 14.1-8.4 13.4-8 16.1-9.5 6.9-4.1 17.1-9.6 30.9-14.9 2.1 1 5.6 2.4 10 3.3 8.3 1.6 11.6-.5 15 2.1 1.1.9 2.3 2.6 4.2 13.7 1.2 7.4 1.3 13.6 1.2 17.8-3.9 1.1-9.8 2.6-17.1 3.3-13.7 1.3-22.9-.9-31.1-2.1-30.2-4.3-51.2 4.7-52.1 1.2z"/><path fill="#e8bfa5" d="M1070.1 143.1c-2.1 15 0 26.9 1.9 34 2.7 10.3 6.6 25.2 20.1 34.5 6.9 4.8 14 6.5 18.7 7.2.3 3.5.6 8.7 0 14.9-.7 7-1.1 11.4-3.8 12.5-3.6 1.5-8.9-4-9.6-4.8-1.1 1.7-3.3 5.6-2.4 10.1 1.7 8.8 13.5 11.6 14.9 12 9.4 2.3 17.5-1.9 23-4.8 10.4-5.4 16.7-13.3 20.1-18.7-.1 1.6-.5 3.6-1.4 3.8-2.2.6-6.4-7.3-8.6-13.4-1.4-3.9-3.7-10.6-2.4-19.2.5-3.3 2-6.5 4.8-12.9 3.3-7.4 5.1-9.3 7.2-9.7 1.9-.4 2.5.7 4.8.6 5-.3 8.3-6.1 9.1-7.2 3.7-5.4 4.9-14.4.5-17.7-2-1.5-5.3-2.2-7.7-1-3.4 1.8-2.4 6.1-6.7 9.1-.2.1-3.7 2.6-5.3 1.4-1.7-1.3.9-5.4-.5-10.6-.4-1.3-.9-2.6-4.3-6.7-6.7-8.3-12.1-12.8-12-12.9.1-.1 3.2 1.8 2.9 2.9-.4 1.3-6 .8-9.6 0-7.3-1.6-12-5.8-15.8-9.1-3.8-3.4-9.5-8.4-13-16.6-1.3-3.2-2.3-6.6-3.3-6.4-.9.1-.9 2.5-1.9 7.2-1.1 4.9-2 8.9-3.8 12.9-.4.8-4.1 8.7-6.7 8.2-2.1-.4-1.9-5.9-3.8-6.2-1.7-.4-3.7 2.9-5.4 6.6zM1001.5 317.2c3.1 7.3 6.9 12.3 9.6 15.3 4.5 5.1 14.4 14.5 29.7 17.7 6 1.3 11.1 1.2 14.4 1 2.5 3.2 5.2 6.4 8.2 9.6 10.3 11.4 20.8 20.5 30.7 27.8 4.2-4.8 11.6-14.5 12.9-28.3.3-3.3.3-6.4 0-9.1-10.4-3.7-18.6-7.6-24.5-10.6-14.3-7.3-16.8-10.6-17.7-12-4.8-7.1-2.3-11.9-6.2-21.6-3.3-8-8.6-13.5-12.5-16.8-.6 5.4-1.3 10.9-1.9 16.3-14.5-5.9-26.3-9.2-34.5-11-4.1-.9-8.1-1.7-10.6.5-5.3 4.9 1.7 19.6 2.4 21.2zM1186.8 846.5c4.2 8.6 8.7 19.9 11.9 33.6 3 12.9 4.1 24.3 4.3 33.6 7.2-.4 14.4-.7 21.7-1.1-1.9-11.4-3.7-23-5.4-34.7-2.7-18.1-5.2-36-7.6-53.6-8.3 7.5-16.6 14.8-24.9 22.2zM1015.1 852c-.3 6.9-.9 14.6-2.2 22.7-1.9 12.2-4.6 22.9-7.6 31.9 2.2 1.8 6.3 4.7 11.9 5.4 9.1 1.2 16.1-3.8 18.4-5.4 2.2-1.6 3.8-3.2 4.9-4.3-.2-8.5.4-20.2 3.8-33.6 3.1-12.1 7.5-21.5 4.3-23.8-2.3-1.8-6.5 2.1-16.2 4.9-7.1 2-13.3 2.2-17.3 2.2z"/><path stroke="#000" stroke-miterlimit="10" d="M1124.7 216.9c.1.2-1.3 1-4 1.9-1.4.4-3 .9-5 1.2-2 .3-4.3.5-6.9.4-5.1-.2-11.3-1.4-17.3-4.7-6-3.3-11.5-8.7-15.8-15.1-4.3-6.5-7.2-13.4-9.1-19.8-1-3.2-1.6-6.3-2.1-9.3-.5-2.9-.8-5.7-.9-8.2-.2-5 .1-9.1.5-11.9.4-2.8.8-4.3 1-4.3.2 0 .2 1.6.2 4.3 0 2.8 0 6.8.6 11.6.3 2.4.6 5.1 1.2 7.9.6 2.8 1.3 5.8 2.3 8.9 2 6.1 4.8 12.7 8.9 18.8 4.1 6.1 9.2 11.1 14.6 14.4 5.4 3.2 11.1 4.6 15.9 5 2.4.2 4.6.2 6.5.1 1.9-.1 3.6-.4 4.9-.6 2.9-.4 4.4-.8 4.5-.6zM1142.4 205.9c-.7-.7 2.6-4.8 5.4-10.4 2.9-5.6 4.3-10.6 5.2-10.4.4.1.6 1.5.3 3.7s-1.1 5.2-2.7 8.2c-1.5 3-3.5 5.5-5.1 7-1.5 1.5-2.8 2.2-3.1 1.9z"/><path stroke="#000" stroke-miterlimit="10" d="M1147.1 237.4c-.1.2-.7.1-1.5-.5-.8-.5-1.9-1.5-2.8-3-.9-1.5-1.7-3.4-2.2-5.6-.4-2.2-.6-4.6-.5-7.1 0-2.4.1-4.8.3-7 .2-2.2.6-4.1 1.1-5.7 1-3.2 2.4-4.8 2.8-4.6.4.2-.2 2.1-.5 5.1-.2 1.5-.3 3.3-.4 5.4-.1 2.1 0 4.3-.1 6.8 0 2.4 0 4.6.2 6.6s.7 3.7 1.2 5c1.3 2.9 2.7 4.2 2.4 4.6zM1105.8 247.6c-.4-.3.5-1.8 1.5-4.2 1-2.4 1.9-5.8 2.1-9.8.2-3.9-.1-7.6-.3-10.3-.2-2.7-.1-4.4.3-4.5.4-.1 1.2 1.5 1.9 4.1.7 2.7 1.5 6.5 1.3 10.9-.2 4.4-1.6 8.3-3.3 10.6-1.7 2.6-3.2 3.5-3.5 3.2zM1153.5 168.2c-.2-.1.1-.9.9-2 .8-1.2 2.2-2.7 4.2-4.3.5-.4 1.2-.8 2-1.1.8-.3 1.8-.4 2.8-.2 2 .4 3.4 1.8 4.4 3.3 2 3.1 3 7 2.6 11.1-.4 4.1-2.1 7.7-4.4 10.4-1.2 1.3-2.4 2.5-3.8 3.3-1.3.9-2.8 1.4-4.1 1.6-1.4.2-2.7.1-3.8-.3-.5-.2-1-.5-1.4-.8-.2-.2-.4-.3-.5-.5-.1-.1-.2-.2-.2-.3-.1-.1-.1-.2-.2-.3-.4-.8-.4-1.5-.1-1.9.3-.4.6-.4.7-.4.1 0 0 .1 0 .4 0 .3.2.7.5 1.1l.1.1s.1 0 0 0h.1l.1.1c.2.1.3.2.5.3.3.1.7.2 1 .3.8.1 1.7.1 2.8-.2 1-.3 2.1-.8 3.1-1.6 1.1-.8 2.1-1.8 3-2.9 1.8-2.3 3.1-5.4 3.4-8.8.3-3.4-.4-6.7-1.9-9.1-.7-1.2-1.7-2.1-2.6-2.3-.4-.1-.9-.1-1.4 0-.5.1-1 .4-1.5.6-2 1.2-3.5 2.4-4.6 3.2-.9.9-1.5 1.4-1.7 1.2z"/><path stroke="#000" stroke-miterlimit="10" d="M1154.6 178.2c-.4 0-.8-.8-.8-2s.6-2.9 1.7-4.4c1.2-1.5 2.7-2.4 3.8-2.7 1.2-.3 2-.1 2.1.3.2.4-.3 1-1 1.7s-1.6 1.6-2.4 2.7c-.9 1.1-1.5 2.2-2.1 3-.4.8-.8 1.4-1.3 1.4z"/><path stroke="#000" stroke-miterlimit="10" d="M1158.6 180.3c-.5 0-.9-.3-1.3-.6s-.8-.7-1.3-1.1c-.4-.4-.8-.7-1.1-1.1l.5-.6c0 .1.3.1-.1.1-.1 0-.2 0-.3.1-.1.1-.2.1-.3.1h-.3c-.1-.1-.2-.2-.3-.4-.1-.3-.2-1 .5-1.6l.8-.1c.8-.1 1.9.2 2.8 1 .9.8 1.3 2 1.3 2.8-.1.9-.5 1.4-.9 1.4zM1097.8 183.4c-.2.1-.7-.1-1.5-.6s-2-1-3.5-2.1c-.7-.5-1.6-1.3-2.2-2.4-.6-1.1-.9-2.4-1-3.7-.1-1.3 0-2.5.2-3.8.1-1.2.3-2.5.5-3.8 1.6-10.5 4.9-18.5 5.7-18.2.9.3-1 8.5-2.5 18.7-.2 1.3-.4 2.5-.5 3.7-.2 1.2-.3 2.3-.3 3.3s.1 1.8.4 2.5c.3.7.8 1.3 1.3 1.9 1.1 1.1 2.3 2.1 2.9 2.9.5.8.7 1.4.5 1.6zM1117 180.4c.4.1.3 2.1-1.1 4.8-1.4 2.7-4.3 6.1-8.5 8.3-4.2 2.2-8.7 2.7-11.7 2.2-1.5-.2-2.8-.6-3.6-1.1-.8-.5-1-1.1-.8-1.2.2-.2.6 0 1.3 0 .7.1 1.8.1 3.2 0 2.7-.1 6.4-.9 10.1-2.8 3.6-1.9 6.4-4.6 8.1-6.7 1.7-2.1 2.5-3.7 3-3.5z"/><path stroke="#000" stroke-miterlimit="10" d="M1117.8 183.7c-.4.1-.9 0-1.4-.3-.5-.3-1-.6-1.5-1s-1-.8-1.3-1.2c-.4-.4-.7-.8-.6-1.3 0-.4.5-.8 1.2-.9.8-.1 1.8.2 2.7.9.9.7 1.4 1.7 1.5 2.4.1.8-.2 1.3-.6 1.4z"/><ellipse cx="1079.4" cy="157.1" stroke="#000" stroke-miterlimit="10" rx="1.6" ry="4.3"/><path stroke="#000" stroke-miterlimit="10" d="M1118 161.4c-.9.1-1.9-1.6-2-4-.1-2.4.8-4.2 1.7-4.2.9.1 1.5 1.9 1.5 4.1.1 2.1-.3 3.9-1.2 4.1zM1099.1 239.1c0 .4-3.2.7-8.4.8-2.6 0-5.6.1-9 0-1.7 0-3.5-.1-5.3-.1-1.8 0-3.6 0-5.3.4-1.7.4-3.3 1.2-4.9 2-1.6.8-3.2 1.6-4.7 2.4-3 1.5-5.7 3-7.9 4.2-4.5 2.4-7.3 3.9-7.6 3.5-.2-.4 2.1-2.5 6.4-5.5 2.1-1.5 4.7-3.1 7.7-4.9 1.5-.9 3.1-1.7 4.7-2.6 1.6-.9 3.5-1.8 5.6-2.3 2.2-.5 4.2-.5 6.1-.4 1.8.1 3.6.2 5.3.3 3.4.2 6.4.4 9 .7 5.2.5 8.3 1 8.3 1.5zM1152.7 239.8c.2 0 .3 1.3-.5 3.3-.7 2-2.5 4.8-5.3 7.4-1.4 1.3-3 2.6-4.7 4-1.7 1.3-3.7 2.7-5.8 4.1-4.2 2.7-9.2 5.3-15.1 6.5-5.8 1.2-11.8.6-16.5-1.6-2.4-1.1-4.5-2.6-6.1-4.3-1.6-1.7-2.8-3.6-3.5-5.4-1.6-3.7-1.5-7-1.1-9.1.5-2.1 1.2-3.1 1.4-3 .2.1-.1 1.2-.1 3.2-.1 2 .3 4.9 1.9 8 1.6 3.1 4.5 6.2 8.7 8 4.2 1.8 9.4 2.2 14.7 1.2 5.3-1 10-3.4 14.1-5.8 2.1-1.2 4-2.5 5.8-3.7 1.8-1.2 3.4-2.4 4.8-3.5 2.8-2.2 4.7-4.5 5.7-6.2 1-2 1.3-3.1 1.6-3.1z"/><path stroke="#000" stroke-miterlimit="10" d="M1106.1 244c0 .4-.6.8-1.6 1-1 .2-2.4 0-3.7-.5-1.4-.6-2.5-1.4-3.1-2.2-.6-.8-.7-1.5-.4-1.8.6-.7 2.5.2 4.7 1 2.1.8 4.1 1.6 4.1 2.5zM1215 307.3c-.6 0 .3-6.1-1.9-15.4-1.1-4.6-2.9-10.1-5.3-16-1.2-2.9-2.5-6.1-3.9-9.2-.3-.8-.7-1.5-1.1-2-.4-.6-.9-1-1.5-1.4-1.2-.8-3.1-1.5-4.7-2.3-13.5-6.2-25.6-12-34.2-16.4-4.3-2.2-7.9-4-10.2-5.3-1.1-.5-2.1-.7-2.7-.5-.6.2-.8.5-.9.5-.1 0-.1-.6.6-1.1.7-.5 2-.5 3.4-.1 2.7 1 6.2 2.5 10.7 4.4 8.9 3.8 21.2 9.3 34.6 15.5.8.4 1.7.8 2.5 1.2.8.4 1.7.8 2.6 1.4.9.6 1.7 1.4 2.3 2.3.6.9 1 1.8 1.4 2.6 1.4 3.3 2.6 6.4 3.8 9.4 2.3 6 3.9 11.7 4.8 16.6.8 4.9.9 8.9.6 11.7-.1.7-.1 1.3-.2 1.8s-.2 1-.3 1.3c-.2.7-.3 1-.4 1zM1165.5 326.3c-.8.4-3-3-5.5-7.2-2.4-4.2-4.3-7.8-3.5-8.3.7-.5 3.8 2.3 6.3 6.7 2.6 4.4 3.5 8.5 2.7 8.8zM1160.8 378c-.9-.1-.9-10.8 1-23.8s5-23.3 5.9-23.1c.9.2-.8 10.7-2.6 23.6-2 12.9-3.4 23.4-4.3 23.3zM1191.5 414.7c-.1-.1.1-.4.4-1 .3-.6 1-1.4 1.6-2.5 1.4-2.1 3.3-5.3 5.1-9.5 1.8-4.2 3.5-9.4 4.8-15.3 1.3-5.9 2.3-12.5 3.2-19.5 1.8-14 2.9-26.7 3.6-35.9.7-9.2 1.1-15 1.6-14.9.4 0 .8 5.8.7 15.1-.1 9.3-.8 22.1-2.6 36.2-.9 7-2 13.8-3.5 19.8s-3.5 11.3-5.6 15.5c-2.2 4.2-4.4 7.3-6.2 9.3-.8 1-1.6 1.7-2.1 2.2-.6.4-.9.6-1 .5zM1158.6 379.2c-.4.4-6.6-5.4-18.3-12.1-5.9-3.4-13.1-7-21.3-10.5-8.3-3.5-17.5-6.9-27.3-10.4-2.4-.9-4.9-1.8-7.2-2.6-2.4-.9-4.8-1.8-7.1-2.9-2.3-1.1-4.5-2.4-6.5-3.9-2-1.6-3.6-3.4-5-5.4-2.7-3.9-4.3-8.1-5.6-11.9-1.3-3.9-2.2-7.5-3.2-10.7-1-3.2-2.1-6-3.3-8.4-1.2-2.4-2.4-4.3-3.6-5.7-2.3-2.9-4.2-4-4-4.3.1-.1 2.2.6 4.9 3.4 1.4 1.4 2.9 3.3 4.3 5.7 1.4 2.4 2.7 5.3 3.9 8.5 1.2 3.2 2.2 6.8 3.6 10.6 1.3 3.7 3 7.6 5.5 11.1 1.3 1.7 2.7 3.3 4.5 4.7 1.7 1.4 3.7 2.5 5.9 3.5 2.1 1 4.4 1.9 6.8 2.7 2.4.9 4.8 1.7 7.2 2.6 9.8 3.5 19.1 7.1 27.4 10.7 8.3 3.7 15.5 7.5 21.3 11.2 5.8 3.7 10.2 7.2 13 9.7 2.8 2.6 4.2 4.2 4.1 4.4zM1056.2 351.2c0 .4-4 1.3-10.6 1-3.3-.2-7.3-.7-11.5-1.9-4.3-1.2-8.8-3-13.2-5.7-4.4-2.7-8.1-6-11-9.4-2.9-3.4-5-6.8-6.4-9.8-1.4-3-2.2-5.6-2.5-7.5-.3-1.8-.3-2.9-.1-2.9.5-.1 1.5 3.8 4.7 9.3 1.6 2.8 3.8 5.8 6.6 8.9 2.8 3.1 6.4 6 10.4 8.6 8.2 5 17 7.2 23.3 8 6.2 1 10.2.9 10.3 1.4zM1185.1 422.3c.1.1-1.7 1.5-5.6 2.5-3.9 1-9.8 1.2-16.8 0-7-1.3-15.1-3.4-23.8-6.9-8.7-3.4-17.9-8.1-27-13.8-9.1-5.8-17.2-12-24.3-18-7.1-6-13.2-11.8-18.2-16.7-5-4.9-8.9-9.1-11.5-12-2.6-2.9-4-4.6-3.8-4.8.3-.3 6.6 5.6 16.9 15.1 10.3 9.4 24.7 22.3 42.6 33.6 8.9 5.7 17.9 10.3 26.4 13.8 8.4 3.5 16.4 5.9 23.1 7.4 6.7 1.5 12.3 1.6 16.1 1.1 3.8-.6 5.8-1.6 5.9-1.3z"/><path stroke="#000" stroke-miterlimit="10" d="M1025.1 334.1c-.2.4-2 .1-4.6-1-2.7-1.1-6.1-3.3-9.4-6.1-3.3-2.9-5.9-5.8-7.6-8-1.7-2.3-2.6-3.8-2.2-4.1.3-.3 1.8.7 3.9 2.5 2.1 1.8 4.9 4.4 8.1 7.1 3.2 2.7 6.2 5 8.4 6.6 2.2 1.6 3.6 2.6 3.4 3z"/><path stroke="#000" stroke-miterlimit="10" d="M1032.8 326.4c-.2.4-3.7-.7-8.9-3.5s-11.9-7.4-18.7-13.3c-.7-.6-1.4-1.2-2-1.8-.3-.3-.7-.6-1-.9l-.6-.5-1-1c-.1-.2-.1 0-.1.1V306.4c0 .2.1.5.1.7.1.6.3 1.3.5 1.9.8 2.4 1.7 4.4 2.6 6.1 1.8 3.3 3.4 5 3.1 5.3-.2.2-2.3-1-4.7-4.2-1.2-1.6-2.5-3.7-3.5-6.3-.3-.6-.5-1.3-.7-2-.4-1.1-.5-2.2-.8-3.4-.2-1.1-.3-2.2-.4-3.4-.1-.6-.1-1.2-.2-1.8 0-.6-.1-1.3-.1-1.6 2.1 1.9 4.2 3.8 6.4 5.8.8.7 1.5 1.4 2.3 2 .7.6 1.3 1.2 2 1.7 6.6 5.8 13 10.6 17.7 13.8 5.1 3.2 8.2 4.9 8 5.4z"/><path stroke="#000" stroke-miterlimit="10" d="M1036.3 315.1c-.1.4-2.9-.2-7.1-2.1-4.2-1.8-9.5-5.1-15.4-8.6-2.9-1.7-5.7-3.2-8.4-4.4-.6-.3-1.3-.6-1.9-.8-.6-.3-1.2-.5-1.8-.7l-.9-.3c-.1-.1-.2-.1-.4-.2-.3-.1-.5-.2-.8-.3-.2-.1-.3-.1-.4-.2 0 .1 0 .2-.1.3v.7c0 .2 0 .5.1.7 0 .1.1.2.1.3.1.1.1.3.1.4.4 1.1.8 1.7.6 1.9-.1.1-.9-.2-1.7-1.2-.1-.1-.2-.3-.3-.5-.1-.2-.3-.4-.4-.6-.2-.5-.5-1-.6-1.6-.2-.6-.2-1.2-.3-1.9 0-.3-.1-.7-.1-1.1.3 0 .7.1 1.1.1l2.4.3c.4.1.9.2 1.4.3.3.1.7.2 1 .3.7.2 1.3.4 2 .6.7.2 1.4.5 2.1.8 2.8 1.1 5.8 2.6 8.8 4.4 6 3.5 11 7.1 14.8 9.4 3.8 2.2 6.3 3.6 6.1 4z"/><path stroke="#000" stroke-miterlimit="10" d="M1045 308.4c-.3.8-9.8-2.2-21.2-6.8-2.9-1.2-5.5-2.3-7.9-3.1-2.4-.9-4.6-1.4-6.5-1.7-.9-.2-1.8-.2-2.6-.2h-2.7c-.1 0-.3.1-.3.1-.1 0-.1 0-.2.1-.1 0 0 .1-.1.2 0 0-.1.1-.2 0s-.2-.4-.1-.6c.1-.2.2-.4.5-.6.1 0 .1-.1.3-.1.1 0 .1 0 .2-.1.1 0 .2-.1.4-.2.5-.2 1.3-.4 2.1-.6.8-.1 1.8-.3 2.9-.2 2.1 0 4.6.4 7.3 1.1 2.6.7 5.4 1.8 8.3 3 11.2 4.5 20.1 8.9 19.8 9.7z"/><path stroke="#000" stroke-miterlimit="10" d="M1043.9 307.3c-.5 0-.7-5.9-.8-15.3-.1-9.4-.3-22.4-.7-36.8-.4-14.4-.8-27.4-1.2-36.8-.3-9.4-.4-15.3.1-15.3.4 0 1.3 5.7 2.2 15.2.9 9.4 1.8 22.4 2.1 36.8.4 14.4.1 27.5-.3 36.9-.4 9.5-1 15.3-1.4 15.3zM1043.8 426.6c-.9.1-2.8-16.7-3-37.4-.3-20.7 1.3-37.5 2.1-37.5.9 0 .9 16.8 1.1 37.4.3 20.7.8 37.5-.2 37.5zM1097.6 386.5c-.3-.3.9-2 2.5-4.8s3.6-6.8 4.8-11.5c1.2-4.7 1.3-9.1 1.3-12.4 0-3.3.1-5.4.6-5.5.4 0 1.1 1.9 1.7 5.3.3 1.7.6 3.7.5 6 0 2.3-.3 4.8-1 7.4-1.3 5.2-3.8 9.4-6.1 12-2.2 2.7-4 3.8-4.3 3.5zM1107.7 392.7c-.7-.6 3-5.8 5.5-13s2.8-13.6 3.7-13.6c.4 0 .9 1.6 1 4.3.1 2.7-.3 6.5-1.7 10.4-1.4 3.9-3.3 7.1-5.1 9.2-1.7 2.1-3.1 3-3.4 2.7zM1164.4 489.7c-.9.1-3.1-14.2-3-32.1 0-17.8 2.2-32.2 3.1-32.1.9.1.2 14.4.2 32.1-.2 17.7.6 32-.3 32.1zM1029.2 501.1c-.9-.1 0-16.1.4-35.8.5-19.7.4-35.8 1.4-35.8.9 0 2.4 16 1.9 35.9s-2.8 35.8-3.7 35.7zM1170.5 501.5c.1.1-.1.6-.6 1.5s-1.3 2.2-2.5 3.8c-2.4 3.1-6.4 7.3-12.3 11.3-11.7 8-30.9 14.2-52.4 15-10.8.4-21-.6-30.2-2.4-9.1-1.8-17.1-4.5-23.6-7.2-1.6-.7-3.2-1.3-4.6-2-1.4-.7-2.8-1.3-4-2-2.4-1.4-4.5-2.5-6.2-3.5-3.3-2.1-5-3.4-4.9-3.6s2.1.7 5.5 2.5c1.8.8 3.9 1.8 6.4 3 1.3.5 2.6 1.1 4.1 1.7 1.4.6 3 1.2 4.6 1.8 6.5 2.4 14.4 4.8 23.3 6.4 9 1.6 19 2.5 29.5 2.1 10.5-.3 20.4-2.1 29.2-4.4 8.8-2.4 16.3-5.7 22.1-9.3 5.9-3.6 10-7.4 12.6-10.2 1.3-1.4 2.3-2.6 2.9-3.4.6-.8 1-1.2 1.1-1.1z"/><path stroke="#000" stroke-miterlimit="10" d="M1114.8 514.9c.1.4-3.6 2.2-10.1 3.8-.8.2-1.7.4-2.5.6-.9.2-1.8.3-2.8.5-1.9.4-4 .6-6.2.8-4.4.3-9.3.4-14.4 0-5.1-.5-9.9-1.4-14.1-2.5-2.1-.6-4.1-1.2-6-1.9-.9-.3-1.8-.6-2.7-1-.8-.4-1.6-.7-2.4-1-6.1-2.8-9.4-5.2-9.2-5.6.2-.4 3.9 1.3 10.1 3.4.8.3 1.6.5 2.4.8.8.3 1.7.5 2.6.8 1.8.6 3.8 1 5.9 1.6 4.2.9 8.8 1.7 13.7 2.2 4.9.4 9.6.4 13.9.3 2.1-.1 4.2-.2 6.1-.5.9-.1 1.9-.2 2.7-.3.9-.1 1.7-.3 2.5-.4 6.4-1.1 10.4-2.1 10.5-1.6zM1135.5 515c-.4-.8 5.8-4.9 12.6-10.9 3.4-3 6.4-5.9 8.5-8 1-1 1.6-1.9 2-2.6.4-.7.6-1.1.8-1.1.2 0 .5.5.4 1.5 0 1-.5 2.3-1.4 3.7-1.8 2.6-4.6 5.9-8.1 9-3.6 3.1-7.2 5.5-9.9 6.9-2.8 1.3-4.7 1.9-4.9 1.5zM1229 804.9c-.1 0-.6-.9-1.4-2.8-.8-1.9-2-4.6-3.5-8.2-.7-1.8-1.6-3.8-2.5-5.9-.9-2.2-1.7-4.6-2.7-7.2-1.9-5.1-4.2-11-6.3-17.6-1.1-3.3-2.2-6.7-3.4-10.3-1.2-3.6-2.2-7.4-3.4-11.3-2.4-7.8-4.6-16.2-7-25-4.5-17.7-8.9-37.3-12.7-58-3.8-20.7-6.8-40.6-9.3-58.7-1.2-9-2.4-17.6-3.3-25.7-1-8.1-1.8-15.6-2.6-22.4-1.5-13.7-2.6-24.8-3.3-32.5-.3-3.8-.6-6.8-.7-8.9-.1-2-.1-3.1 0-3.1s.3 1 .7 3c.3 2 .8 5 1.3 8.8 1.1 7.6 2.5 18.7 4.3 32.4.9 6.8 1.9 14.3 3 22.3s2.3 16.6 3.6 25.6c2.7 18 5.8 37.8 9.6 58.5 3.9 20.7 8.1 40.2 12.4 57.9 2.3 8.8 4.3 17.2 6.6 25 1.1 3.9 2.1 7.7 3.2 11.3 1.1 3.6 2.2 7 3.2 10.3 2 6.6 4.1 12.5 5.8 17.7.9 2.6 1.7 5 2.4 7.2.8 2.2 1.5 4.2 2.2 6 1.3 3.6 2.3 6.4 3 8.4s.9 3.2.8 3.2zM983.6 843.9c-.1 0 0-1.2.4-3.4s1-5.4 1.9-9.5c.4-2.1.9-4.4 1.4-6.9.5-2.5 1.1-5.3 1.6-8.2 1.2-5.9 2.6-12.6 4-20 .7-3.7 1.5-7.6 2.3-11.6.8-4 1.5-8.3 2.3-12.6 1.7-8.7 3.3-18.1 5-27.9 3.3-19.7 6.8-41.3 10-64.1 3.2-22.8 5.8-44.6 7.9-64.4 1-9.9 2-19.3 2.8-28.2.4-4.4.8-8.7 1.2-12.8.3-4.1.7-8 1-11.8.7-7.5 1.1-14.3 1.6-20.3.2-3 .5-5.8.7-8.3.2-2.6.4-4.9.5-7 .3-4.2.6-7.5.8-9.7.2-2.2.4-3.4.5-3.4.1 0 .2 1.2.1 3.4 0 2.2-.1 5.5-.2 9.7-.1 2.1-.1 4.5-.2 7-.1 2.6-.3 5.4-.4 8.4-.3 6-.6 12.8-1.1 20.4-.3 3.8-.5 7.7-.8 11.8-.3 4.1-.7 8.4-1 12.8-.7 8.9-1.6 18.3-2.5 28.2-2 19.9-4.5 41.7-7.7 64.5-3.2 22.8-6.7 44.5-10.2 64.2-1.8 9.8-3.5 19.2-5.3 27.9-.9 4.4-1.7 8.6-2.5 12.6-.9 4-1.7 7.9-2.5 11.6-1.5 7.4-3.1 14-4.5 19.9-.7 2.9-1.3 5.6-1.9 8.1-.6 2.5-1.2 4.8-1.7 6.8-1 4.1-1.9 7.3-2.5 9.4-.5 2.3-.9 3.4-1 3.4zM1158.6 857.5c-.1 0-.4-.9-.9-2.8s-1.2-4.6-2-8.1c-1.7-7-4-17.3-6.9-29.9-5.7-25.3-13.3-60.2-21.5-98.8-4.1-19.3-7.9-37.7-11.5-54.5-3.5-16.8-6.5-31.9-9.6-44.4-3-12.5-6.2-22.5-8.7-29.3-2.5-6.8-4.1-10.5-3.8-10.6.1 0 .6.8 1.5 2.5.5.8 1 1.9 1.6 3.2.6 1.3 1.3 2.7 2 4.4 2.9 6.7 6.4 16.6 9.7 29.2 3.4 12.5 6.6 27.6 10.3 44.3 3.6 16.7 7.6 35.1 11.7 54.4 8.2 38.6 15.5 73.7 20.6 99 2.5 12.7 4.6 23 5.9 30.1.7 3.6 1.1 6.3 1.4 8.2s.4 3.1.2 3.1zM1226 802.1c.2.1.1 1.4-.6 3.6s-2.2 5.3-4.5 8.8c-2.3 3.5-5.6 7.2-9.3 11.1-3.7 3.9-7.8 8.2-12.4 12.5-4.6 4.3-9.2 8.1-13.7 11.2-2.3 1.5-4.5 2.9-6.6 4.1-2.1 1.2-4.2 2.2-6.2 2.9-3.9 1.5-7.4 2.1-9.7 2.1-2.4 0-3.6-.4-3.6-.6 0-.2 1.3-.3 3.5-.6 2.2-.4 5.3-1.2 8.9-2.9 1.8-.9 3.7-1.9 5.7-3.2 2-1.2 4.1-2.7 6.2-4.2 4.3-3.1 8.7-6.9 13.2-11.2 4.5-4.2 8.7-8.4 12.5-12.2 3.8-3.8 7.1-7.2 9.6-10.4 2.5-3.1 4.2-5.9 5.2-7.9 1.1-2 1.6-3.2 1.8-3.1z"/><path stroke="#000" stroke-miterlimit="10" d="M1056.5 840.1c-.2 0 0-3.5.6-9.8.3-3.2.7-7 1.2-11.5s1.1-9.5 1.9-15.2c1.4-11.2 3.4-24.6 5.6-39.3 2.3-14.8 5-31 8.1-48 6.1-34 12.3-64.6 16.9-86.7 2.3-11.1 4.3-20 5.7-26.2 1.4-6.2 2.3-9.6 2.5-9.5.2 0-.2 3.5-1.3 9.8-1 6.2-2.6 15.2-4.7 26.4-4.1 22.2-9.9 52.9-16 86.9-3 17-5.8 33.2-8.3 47.9-2.4 14.7-4.6 28-6.3 39.2-1.7 11.2-3.1 20.2-4.1 26.4-.9 6.2-1.6 9.6-1.8 9.6zM1056 838.7c.2.4-3 2.9-8.8 6.4-2.9 1.7-6.4 3.6-10.7 5.2-2.1.8-4.4 1.5-6.8 2-2.4.5-4.9.9-7.5 1.1-5.2.5-10.1.3-14.5.1-4.4-.3-8.3-.7-11.7-1.1-3.3-.4-6.1-1.1-7.8-1.9-1.8-.8-2.5-1.6-2.4-1.7.1-.2 1.1.1 2.8.5 1.8.4 4.3.7 7.6.8 3.3.1 7.2.2 11.6.4 4.3.1 9.1.1 14-.3s9.5-1.4 13.6-2.7c4.1-1.3 7.6-3 10.6-4.4 6-3 9.7-4.8 10-4.4z"/><path stroke="#000" stroke-miterlimit="10" d="M1041.5 912.7c-.8.1-2.2-16.1.2-35.9 2.4-19.8 7.6-35.2 8.4-34.9.9.3-2.8 15.8-5.2 35.3-2.4 19.5-2.4 35.5-3.4 35.5zM1001.5 900.3c-.9-.2.8-10.4 1.9-23 1.1-12.6 1.2-22.9 2.1-23 .9-.1 2.3 10.4 1.1 23.3-1 12.9-4.3 22.9-5.1 22.7zM972.5 921.2c-.1.5-2.9.3-7.2 1.2-4.3.9-9.9 3.2-15.4 7.1-2.8 1.9-5.3 4-7.5 5.9-2.2 1.9-4.3 3.7-5.9 5.2-1.6 1.5-2.5 2.9-3 4s-.7 1.8-1 1.7c-.2 0-.5-.7-.3-2.1.2-1.4 1-3.3 2.5-5.1 1.5-1.9 3.4-3.8 5.6-5.9 2.2-2.1 4.8-4.3 7.7-6.3 2.9-2 6-3.7 8.9-4.8 2.9-1.1 5.7-1.7 8.1-1.9 4.7-.4 7.6.6 7.5 1z"/><path stroke="#000" stroke-miterlimit="10" d="M1001.4 903c-.1.5-2.2.4-5.4 1.2-1.6.4-3.4 1.1-5.4 2-2 1-4 2.2-6.1 3.7-2.1 1.5-4.1 3.1-5.9 4.5-1.8 1.4-3.5 2.6-4.9 3.6-2.9 2-4.8 3-5.1 2.7-.3-.3 1.1-2 3.6-4.5 1.3-1.2 2.8-2.6 4.5-4.1 1.7-1.5 3.7-3.2 5.9-4.8 2.2-1.6 4.5-2.9 6.8-3.8 2.2-.9 4.4-1.4 6.3-1.6 3.6-.2 5.8.8 5.7 1.1zM1040.5 903.5c.3.3-1.4 2.3-4.9 4.4-3.5 2.1-8.9 4.2-15.2 4.6-3.1.2-6.2 0-8.9-.8s-5-2.1-6.6-3.5c-1.6-1.4-2.5-2.9-3-4-.4-1.1-.5-1.8-.3-1.8.5-.2 1.6 2 4.6 4 1.5 1 3.5 1.9 5.9 2.4 2.4.5 5.1.7 8 .5 5.8-.3 10.8-1.9 14.4-3.4 3.6-1.5 5.7-2.8 6-2.4zM1036 943.2c-.2-.1-.1-.7.2-1.5.3-.9.8-2.1 1.2-3.5.2-.7.4-1.5.4-2.3.1-.8 0-1.7-.2-2.7-.2-1-.4-2-.6-3.2-.2-1.2-.3-2.6-.3-3.9.2-2.7.9-5 1.4-7.1.6-2 .9-3.8 1.1-5.3.3-3-.4-4.8 0-5 .2-.1.7.2 1.2 1.1.5.8 1 2.2 1.2 4 .2 1.7 0 3.8-.4 5.9-.4 2.1-1 4.4-1.1 6.6-.1 1.1 0 2.1.2 3.2s.3 2.2.4 3.4c.1 1.1.1 2.3-.1 3.4s-.6 2-.9 2.8c-.8 1.6-1.6 2.6-2.2 3.3-.8.6-1.3.9-1.5.8z"/><path stroke="#000" stroke-miterlimit="10" d="M1038 941.2c.1.1-.5 1.5-2.7 3.4-1.1.9-2.5 1.9-4.3 2.8-1.8.9-4 1.6-6.4 2.1-5 1-11 .7-17.3 0-6.4-.7-13.3-1.1-20.6-1.1-7.3 0-14.4.3-20.8.5s-12.2.4-17.1.4c-4.9 0-8.8-.2-11.5-.4-1.5-.1-2.6-.7-3.1-1.5-.2-.4-.2-.7-.1-.9.1-.2.2-.3.3-.3.1 0 0 .1.1.2 0 .1.1.4.3.6.4.4 1.4.7 2.6.6 2.7-.1 6.6-.4 11.4-.6 4.8-.3 10.6-.7 17-1.1 6.4-.4 13.5-.8 20.9-.8 7.4 0 14.6.5 21 1.4 6.3.9 12 1.4 16.6.7 4.6-.6 8.2-2.2 10.4-3.6 2.1-1.4 3.1-2.6 3.3-2.4zM1199.5 917.4c-.5 0-.7-3.8-2.4-9.7-.8-2.9-2.1-6.3-3.6-10.1s-3.2-8-4.9-12.4c-6.8-17.7-11.7-32.2-10.9-32.6s7.1 13.7 13.9 31.4c1.7 4.4 3.3 8.6 4.7 12.5 1.4 3.9 2.4 7.5 3 10.6 1.3 6.3.6 10.3.2 10.3zM1226.1 911.8c-.4.1-1.8-4.8-3.6-12.7-1.7-7.9-3.8-19-5.6-31.2-1.8-12.3-3-23.4-3.7-31.5-.6-8.1-.7-13.1-.3-13.2.9-.1 3.5 19.8 7.1 44.2 3.7 24.4 7 44.2 6.1 44.4z"/><path stroke="#000" stroke-miterlimit="10" d="M1202.7 915.8c-.2.2-.6 0-1.3.2-.3.1-.8.3-1.3.6s-1 .7-1.7 1.2c-2.6 2-6 4.7-9.6 8-3.5 3.3-6.4 6.7-8.5 9.1-.5.6-1 1.2-1.4 1.6-.4.5-.8.9-1.1 1.3l-.1.1h-.1l-.1.1c-.1.1-.1.2-.1.2l-.1.1c0 .1.1.1.1.1 0 .1 0 .1-.1.2s-.4 0-.5-.2c-.1-.2-.2-.4-.2-.6v-.4c0-.1.1-.2.1-.3l.1-.2c.2-.4.4-1 .7-1.6.3-.6.7-1.3 1.1-2 1.7-2.9 4.4-6.6 8.2-10.2 3.7-3.5 7.6-6.1 10.6-7.6 1.4-.8 3-1.3 4.1-1.1.6.1 1 .4 1.2.6.1.5.1.7 0 .8z"/><path stroke="#000" stroke-miterlimit="10" d="M1227.6 914.8c-.4.3-1.4-1.1-3.6-1.8-2.2-.8-5.6-.9-9.6-.6-2 .1-3.8.2-5.4.5-1.6.3-3 .7-4.1 1.1-2.2.9-3.3 2.1-3.7 1.9-.2-.1-.1-.6.2-1.3.4-.7 1.1-1.7 2.3-2.5 1.2-.9 2.8-1.6 4.6-2.1 1.8-.5 3.8-.7 5.9-.8 2-.1 4.1-.1 5.9.2 1.8.3 3.5.8 4.8 1.6 1.3.8 2.1 1.7 2.5 2.5.4.7.4 1.2.2 1.3z"/><path stroke="#000" stroke-miterlimit="10" d="M1237.1 954.2c-.5 0-.8-2.5-1.1-6.4-.3-3.9-.6-9.3-1.5-15.1-.9-5.8-2.6-10.8-4.3-14.3-1.6-3.5-3-5.5-2.6-5.8.3-.3 2.4 1.3 4.6 4.7 2.3 3.4 4.5 8.7 5.5 14.9 1 6.1.9 11.7.6 15.6-.3 4-.8 6.4-1.2 6.4zM1194.4 940c-.1.5-2.9.2-7.4.5s-10.7 1.3-16.8 4.3c-6.1 2.9-10.8 7.1-13.8 10.4-3 3.3-4.6 5.8-5 5.5-.4-.2.5-3 3.2-7 2.7-3.9 7.5-8.7 14.2-11.9 6.7-3.2 13.5-4 18.2-3.6 4.7.3 7.5 1.4 7.4 1.8zM1233 950.7c.1.1-.5 1.2-2.2 2.7-1.7 1.5-4.4 3.2-8.1 4.7-3.7 1.5-8.1 2.7-13.1 3.9-5 1.2-10.6 2.2-16.4 3-11.8 1.5-22.6 1.5-30.3.9-7.7-.6-12.4-1.6-12.4-2 .1-.5 4.8-.3 12.5-.3s18.2-.3 29.8-1.8c5.8-.7 11.3-1.7 16.2-2.7 5-1 9.4-2 13-3.1 7.2-2.3 10.7-5.6 11-5.3zM1214.2 925.2c0 .4-1.4.8-3.9 1.4-.6.1-1.3.3-2.1.4-.7.1-1.5.3-2.3.4-.5.1-1 .2-1.5.4.2.1.3.2.5.3l.2.1.1.1-1.7-1.1.2.1c1.6 1 3.2 2.1 4.9 3.2 2.5 1.7 5 3.4 7.4 4.9-4.3-.5-8.2-.9-11.6-1.4l-2.4-.3c-.3 0-.7-.1-1-.1-.2 0-.4-.1-.7-.1-.9-.1-1.7-.3-2.4-.4-2.9-.6-4.6-1.1-4.6-1.5 0-.4 1.8-.6 4.8-.6h3.9c.6 0 1-.1 1.5-.1-.2-.1-.4-.2-.6-.4l-.3-.2-.1-.1.2.1.3.2.9.6.1.1-.1-.1-.2-.1-.4-.3c-.5-.3-1-.7-1.5-1-1.4-.9-2.7-1.8-4.1-2.7-.8-.5-1.6-1.1-2.3-1.6 3.7-.3 7.1-.6 9.9-.8H1210c2.7.1 4.2.2 4.2.6zM993.1 917.3c0 .3-.9.6-1.8 1.7-.4.6-.8 1.3-1.1 2.3-.1.3-.1.4-.2 1-.1.5-.1 1-.2 1.6-.1 1.2-.2 2.4-.3 3.7 0 0-.1 0-.1-.1l-.2-.1-.4-.3c-.3-.2-.5-.4-.8-.6-.5-.4-1.1-.9-1.7-1.3-.9-.7-1.9-1.5-2.9-2.2-.4-.3-.7-.6-1.1-.9l-.4-.3c-.1-.1-.2-.1-.3-.1-.1 0-.2.1-.3.2V922.5c.1.4.1.8.2 1.2.2 1.7.4 3.5.6 5.1.2 1.6.4 3.1.5 4.5.1.7.1 1.4.2 2 0 .2-.1.2-.1.3 0 .2-.1.3-.1.5-.9-1.5-1.8-3-2.7-4.3-.8-1.3-1.5-2.5-2.1-3.3-.6-.9-1.1-1.5-1.5-2.1-.2-.3-.4-.5-.6-.8-.2-.2-.3-.3-.4-.5-1-1.2-1.5-2-1.4-2.2.2-.2 1.1.1 2.4 1.1.2.1.4.3.5.3.1.1.2.1.3.2.2.1.4.3.6.4.4.3.6.5.8.7l.2.2c0-.2-.1-.4-.1-.7-.1-.4-.2-.7-.2-1.1-.1-.3-.1-.6-.2-.9l-.1-.3c-.1-.5-.1-.9-.1-1.4 0-.9.1-1.7.5-2.4.4-.6 1-1.1 1.8-1.2.7-.1 1.4 0 2.1.4.3.2.7.4 1 .7.3.3.6.5.9.8.4.3.7.6 1.1.9.4.3.7.6 1 .9l.3.3.3.3.2.2.1.1c.1-.2.1-.4.2-.6 0-.1.1-.2.1-.4 0 0 .2-.5.3-.8.5-1.2 1.3-2.2 2.1-2.8.8-.6 1.6-.8 2.1-.8.8 0 1 .2 1 .3zM845.4 356c-.1-.1.1-.4.5-1.1.4-.6.9-1.6 1.3-2.9.4-1.3.6-3 .3-4.9-.3-1.9-1.2-3.8-3-5.3-1.7-1.5-4.2-2.5-6.9-2.4-1.3.1-2.6.4-3.9 1.1-1.3.7-2.5 1.6-3.9 2.7-1.3 1.1-2.7 2.2-4.4 3.2-1.7 1-3.6 1.7-5.6 2.1-4 .7-8.3.2-12.2-1.4-2-.8-3.8-1.8-5.4-3-1.6-1.2-3.1-2.6-4.4-4.2-2.5-3-4.2-6.5-5.4-9.8-2.3-6.8-2.5-13.2-2.2-18.4.3-5.2 1.1-9.4 1.9-12.2.8-2.8 1.4-4.3 1.6-4.2.2.1 0 1.6-.4 4.5-.4 2.8-.8 7-.8 12 0 5.1.5 11.2 2.7 17.3 1.1 3.1 2.7 6.1 5 8.8 1.1 1.3 2.4 2.5 3.8 3.6 1.5 1 3.1 1.9 4.7 2.6 3.4 1.4 7 1.8 10.4 1.2 1.7-.3 3.2-.9 4.6-1.7 1.4-.8 2.7-1.9 4.1-2.9 1.4-1 2.8-2.1 4.4-2.9 1.6-.8 3.4-1.3 5.1-1.3 3.5 0 6.5 1.4 8.5 3.4 2.1 2 3.1 4.6 3.2 6.8.2 2.2-.3 4.1-.9 5.5-.6 1.4-1.4 2.3-1.9 2.9-.4.8-.8 1-.8.9zM847.3 274.6c.2-.1.9.5 1.6 2 .6 1.5 1.1 4.1 0 7-1.1 2.9-4.3 5.7-8.6 6-1 .1-2.2 0-3.2-.3-1.1-.3-2.1-.7-3-1.2-1.9-1-3.5-2.3-5.2-3.4-3.2-2.1-6.9-3-10.3-3.1-3.4-.2-6.4.5-8.9 1.4-.6.2-1.2.5-1.7.7-.5.3-1 .5-1.5.7-.4.3-.9.5-1.2.7-.4.2-.7.5-1.1.7-.2.1-.3.2-.5.3l-.2.2c-.1.2-.2.3-.3.5 0 .1-.1.2-.1.2 0 .1.1.1.1.2 0 0 0 .1-.2.2-.2 0-.5-.2-.5-.5-.1-.3-.1-.6 0-1 .1-.2.2-.4.4-.6.1-.1.2-.3.4-.4.3-.3.5-.6.9-.9.4-.3.8-.7 1.2-1 .5-.3 1-.7 1.5-1 .6-.3 1.2-.7 1.8-1 2.6-1.2 6-2.3 9.8-2.3 3.8-.1 8.2 1 12 3.4 1.9 1.2 3.4 2.5 5 3.3 1.6.9 3 1.4 4.5 1.3 1.5 0 2.9-.5 4.1-1.3 1.2-.7 2-1.7 2.6-2.7 1.1-2.1 1.1-4.3.9-5.7-.2-1.5-.5-2.3-.3-2.4zM839.8 210.3c.9 0 2.1 11.8 2.9 26.3.9 14.6 1.1 26.4.2 26.5-.9.1-2.6-11.7-3.5-26.3-.8-14.6-.5-26.5.4-26.5zM1031.4 194.1c0 .2-2.5.5-7 .8-4.5.3-11.1.7-19.2 1.1-16.2.9-38.7 2.1-63.5 3.7-12.4.8-24.2 1.7-34.9 2.5s-20.4 1.5-28.6 1.5c-8.2.1-14.8-.5-19.3-1.2s-7-1.4-6.9-1.6c0-.2 2.5 0 7.1.3 4.5.3 11.1.5 19.2.1 8.1-.3 17.7-1.2 28.4-2.2 10.7-1 22.5-1.9 34.9-2.7 24.8-1.6 47.3-2.5 63.6-2.8 8.1-.2 14.7-.2 19.3-.1 4.4.2 6.9.4 6.9.6zM848.9 429.6c-.9.1-2.4-13.2-4.6-29.4-2.2-16.2-4.3-29.3-3.4-29.5.9-.2 4.4 12.7 6.6 29.1 2.3 16.3 2.3 29.7 1.4 29.8zM1033.7 427c0 .2-2.5.5-7.2.9-4.6.4-11.3.8-19.5 1.2-16.5.9-39.3 2-64.5 3.2-25.2 1.2-48 2.3-64.5 3-8.3.3-14.9.6-19.6.7-4.6.1-7.2 0-7.2-.2s2.5-.6 7.1-1.1c4.6-.5 11.3-1.1 19.5-1.7 16.5-1.3 39.3-2.7 64.5-3.9 25.2-1.2 48-2 64.5-2.3 8.3-.2 15-.2 19.6-.2 4.7 0 7.3.1 7.3.4zM1026.7 409.5c-.9.1-2-6.2-2.7-14-.7-7.8-.8-14.2.1-14.3.9-.1 2.4 6.1 3.1 14 .8 7.9.4 14.3-.5 14.3z"/><ellipse cx="1032.9" cy="387.8" stroke="#000" stroke-miterlimit="10" rx="28.4" ry="1.6" transform="rotate(87.825 1032.901 387.838) scale(1.00002)"/><ellipse cx="1049" cy="214.7" stroke="#000" stroke-miterlimit="10" rx="23.4" ry="1.6" transform="scale(.99996) rotate(85.162 1049.005 214.74)"/><path stroke="#000" stroke-miterlimit="10" d="M1152.7 157.1c.1.1-.5.7-2 1.2-1.4.5-3.7.8-6.5.2-1.4-.3-2.9-.9-4.3-1.8-1.5-.9-2.9-2.1-4.2-3.5-1.3-1.4-2.4-3.1-3.5-5-.2-.5-.5-.9-.7-1.4-.2-.3-.3-.6-.5-1l-.2-.4-.1-.2-.1.1c-.1.2-.2.3-.3.4l-.1.1-.2.2-.9.6c-1.3.7-2.7 1-4.1 1.2-2.9.3-5.7-.3-8.4-1.4-3.1-1.3-5.8-3.1-8.1-5.1-2.3-2-4.3-4.1-6.1-6.2-3.6-4.2-6.2-8.4-8.2-12.1-1.9-3.7-3.2-6.8-3.9-9-.7-2.2-.9-3.5-.7-3.5.5-.2 2.3 4.6 6.6 11.4 2.1 3.4 4.9 7.3 8.5 11.3 1.8 2 3.7 4 5.9 5.8 2.2 1.8 4.6 3.5 7.2 4.5 2.3.9 4.7 1.4 6.8 1.2 1.1-.1 2.1-.4 3-.8.2-.1.4-.2.6-.4l.2-.2.3-.2.3-.2c.1-.1.2-.2.3-.4l.5-.8.6-1c.4-.6.7-1.3 1.1-1.9l.2.4c0 .1.1.1.1.2l.1.3c.2.4.3.9.5 1.3.3.9.7 1.8 1 2.6.2.4.3.9.5 1.2l.3.7c.2.5.4.9.6 1.3.9 1.7 1.8 3.3 2.9 4.6 1.1 1.3 2.2 2.4 3.4 3.3 1.2.8 2.4 1.4 3.6 1.9 2.4.8 4.4.8 5.8.7 1.4-.1 2.2-.4 2.2-.2z"/><path stroke="#000" stroke-miterlimit="10" d="M1153.8 170.1c.2.4-.6 1.3-2.1 2.6-.2.2-.4.3-.6.5-.3.2-.7.5-1.1.6-.9.3-1.9.2-2.8-.5-.2-.2-.4-.3-.6-.6-.2-.2-.3-.3-.4-.5-.3-.3-.5-.6-.7-1-.4-.7-.8-1.5-1-2.3-.5-1.6-.5-3.2-.4-4.6.1-1.4.4-2.5.7-3.5.6-1.9 1.3-3 1.7-2.9.5.1.6 1.3.5 3.2 0 1.9-.1 4.4.6 6.8.2.6.4 1.1.7 1.6.1.2.3.5.4.7.1.2.2.3.3.4.1.2.3.3.5.3.1 0 .2 0 .4-.1s.5-.2.7-.3c1.8-.5 3-.8 3.2-.4zM1065.1 150.6c-.2 0-.2-.6 0-1.5s.8-2.2 1.7-3.6c.9-1.4 2.3-2.9 3.7-4.6 1.4-1.7 2.7-3.6 2.9-5.8l3 .5c-.3 1.3-.2 2.8.3 3.9.3.6.6.9 1.2 1.2.5.3 1.1.4 1.6.3.3 0 .4-.1.6-.3l.7-.7c.4-.6.9-1.5 1.4-2.3.9-1.6 1.8-3.2 2.6-4.7 1.5-3 2.7-5.8 3.4-8.2 1.4-4.9 1.3-8.1 1.8-8.1.2 0 .5.8.7 2.3.2 1.5.2 3.7-.3 6.4s-1.4 5.8-2.9 9c-.7 1.6-1.6 3.3-2.5 4.9-.5.8-.9 1.6-1.5 2.6-.3.5-.8 1-1.3 1.4-.6.4-1.3.8-2 .9-1.4.2-2.7-.1-3.7-.7-1.1-.6-2-1.6-2.5-2.6-1-2.1-.9-4.2-.4-6l3 .5c-.2 1.6-.9 3-1.6 4.2-.7 1.2-1.6 2.1-2.4 2.9-1.6 1.7-3.1 2.9-4.1 4.1-2.4 2.3-3 4.1-3.4 4z"/><path stroke="#000" stroke-miterlimit="10" d="M1091.1 142.1c-.5.8-2.2.5-3.9.1-1.8-.5-3.3-1.1-3.4-2 0-.4.4-.9 1.2-1.2.8-.3 1.9-.3 3 0 1.2.3 2.1.9 2.7 1.5.4.6.6 1.2.4 1.6zM1107.5 140.1c-.2.9-1.3 1.4-2.4 1.4-1.1.1-2.2-.2-2.6-1.1-.2-.4 0-.9.4-1.3s1.1-.8 2-.8c.8-.1 1.6.2 2.1.5.4.4.6.9.5 1.3zM1064.6 166.2c-.1.1-1.1-.3-2.6-1.7s-3.4-3.9-4.1-7.8l1.8.2c-.2.5-.3 1-.5 1.5-.1.3-.1.5-.2.8-.1.3-.2.8-.2 1.3-.1.9-.2 1.9-.2 3.2 0 1.3 0 2.8.1 4.2-.2-.1-.4-.2-.5-.2l-.2-.2-.2-.3-.5-.6c-.6-.8-1.3-1.7-1.9-2.6-.6-.9-1.3-1.8-1.9-2.9-.2-.3-.3-.5-.5-.8l-.3-.6c-.2-.4-.4-.7-.6-1.1-1.5-3-2.6-6.5-3.2-10.2-1.2-7.4-.3-16.1 3.9-23.8l2.6 1.9-.7.7c-2.3 2.4-4.6 4.7-6.8 7.1l-.8.9-.1.1v-1.1c.1-.8.1-1.7.2-2.5.1-1.6.3-3.2.5-4.8.2-.9.3-1.7.5-2.6 0-.2.1-.3.1-.5l.1-.4.2-.8c.3-1 .6-2 .9-2.9.7-1.9 1.5-3.7 2.4-5.4.9-1.7 1.9-3.3 3-4.8s2.3-2.8 3.5-4c2.4-2.4 5-4.4 7.5-5.9 5-3 9.6-4.2 12.7-4.7 3.2-.5 5-.3 5-.1 0 .3-1.7.5-4.7 1.4-3 .9-7.2 2.4-11.8 5.4-2.3 1.5-4.6 3.4-6.8 5.8-1.1 1.2-2.1 2.5-3.1 3.9s-1.9 2.9-2.7 4.5c-.8 1.6-1.5 3.3-2.1 5.1-.3.9-.6 1.8-.8 2.7-.1.4-.2.9-.3 1.3l-.1.4c0 .2-.1.5-.1.7v.5l.2-.2c.5-.5 1-1.1 1.5-1.6l.1-.2 9.2-10-6.6 11.9c-3.8 7-4.8 14.9-3.8 21.7.5 3.4 1.5 6.6 2.7 9.5.2.3.3.7.5 1l.2.4.1.2c.1.3.3.5.4.8.1.3.4.6.5.9l.1.2.1.1s.1.1 0 0v-.4c0-.5.1-1.1.3-1.6 0-.2.1-.3.1-.5l.3-.9c.2-.6.4-1.1.6-1.6l1.5-3.4.4 3.6c.3 3.4 1.8 5.9 3 7.4 1.4 1.6 2.3 2.3 2.1 2.4zM1170.2 103.5c-.2.1-1.3-1.3-3.3-3.7-2.1-2.4-5.2-5.7-9.9-8.8-4.6-3.1-10.7-6.1-17.9-7.3-1.8-.3-3.7-.6-5.6-.6-1.9-.1-3.9-.1-5.8.1-2 .1-4 .4-6 .8-1 .2-2 .5-3 .7-.6.2-1.2.4-1.8.5-.9.3-1.9.7-2.8 1l-3.9 1.5c0-.4.3-1.3.5-2s.4-1.4.7-2.2c.2-.7.6-1.5.9-2.2.2-.4.4-.7.6-1.1l.3-.6c.1-.2.2-.4.3-.5.3-.5.6-.9.9-1.3.1-.1.1-.2.1-.2l.1-.1.1-.1c.2-.2.4-.3.5-.5.2-.1.4-.3.6-.4.1-.1.2-.1.3-.2l.2-.1h.1-.1c-.4 0-.8.1-1.3.2-.2 0-.4.1-.7.1-.1 0-.2.1-.3.1l-.5.2c-.7.2-1.4.5-2.1.7-.7.3-1.4.5-2 .8-5.3 2.2-9.8 5-13.4 7.3-3.6 2.4-6.5 4.4-8.5 5.7-2 1.3-3.1 2-3.3 1.9-.1-.2.8-1.1 2.6-2.7s4.5-3.9 8-6.5c3.6-2.6 7.9-5.7 13.5-8.2l2.1-.9c.7-.3 1.4-.6 2.2-.9.6-.2 1.1-.4 1.7-.6.6-.2 1.2-.4 1.8-.5 1.2-.3 2.5-.6 3.7-.8 1.1-.2 2.3-.4 3.5-.5 1.3-.2 2.6-.4 3.9-.5h.4-.1l-.2.1v.1h1.2c.2 0 2.3-.2 3.9-.4-2.1 1-4.2 1.9-6.3 2.9l-2.9 1.3-.7.3-.3.2-.5.3-2.1 1.2-1.1 1c-.4.3-.7.6-1 1l-.4.5-.2.2c-.1.1-.1.1-.1.2-.3.4-.5.7-.8 1.1l-.1.2-.1.2c-.1.1-.1.2-.1.3 0 .1-.1.2-.1.3 0 .1-.1.3 0 .2.2-.1.3-.1.5-.2l.4-.1 1.3-.4c1.1-.3 2.1-.6 3.2-.8 2.2-.4 4.3-.7 6.4-.8 2.1-.1 4.2-.1 6.2 0s4 .4 5.9.8c7.7 1.5 14 4.9 18.7 8.4 4.7 3.5 7.7 7.2 9.5 9.9 2 2.7 2.6 4.3 2.5 4.4z"/><path stroke="#000" stroke-miterlimit="10" d="M1174.4 182.8c-.4-.3 2.6-4.2 5.1-11.5 1.2-3.6 2.2-8.1 2.7-13.1.4-5 .2-10.6-.6-16.5-.8-5.8-2.1-11.3-3.4-16.3-1.3-5-2.8-9.3-4.4-12.8-3.2-7-6.7-10.5-6.3-10.9.1-.1 1.2.5 2.8 2.1 1.6 1.6 3.6 4.2 5.5 7.7s3.7 8 5.2 13 2.9 10.6 3.7 16.7c.8 6 1 11.9.3 17.2-.6 5.3-1.9 10-3.5 13.7-1.6 3.7-3.3 6.5-4.7 8.2-1.2 1.9-2.2 2.6-2.4 2.5zM1142.6 217.2c-.2-.3 1.8-1.5 4.8-3.9 1.5-1.2 3.3-2.7 5.2-4.6.5-.5.9-1 1.4-1.5.4-.4.8-.9 1.2-1.3.4-.5.8-.9 1.3-1.5 1.7-2 3.8-5 5.7-7.6.1.1-.3 2.1-.5 3.6s-.5 3.1-.8 4.7l-.1.6v.4-.1l.1-.4.3-1.6.1-.3v.2l-.1.9c-.1.6-.2 1.2-.3 1.9l-.2 1.2-.4 2.2v.1-.1l.1-.6c.1-.4.2-.9.2-1.3v-.2l.1-.1.2-.2.3-.4c.1-.1.2-.3.4-.4l.2-.2.6-.8c.4-.6.9-1.3 1.3-1.9.4-.6.8-1.3 1.2-1.9 1.5-2.6 2.7-5.1 3.7-7.6 1.9-4.9 2.8-9.3 3.3-12.6l1.8.1c-.2 2.1-.7 3.6-1.2 4.6-.5 1-.9 1.5-1 1.4-.2-.1-.1-.6.1-1.7.2-1 .4-2.5.3-4.4l1.8.1c-.1 3.4-.6 8.2-2.4 13.5-.9 2.6-2.1 5.4-3.6 8.1l-1.2 2.1c-.4.7-.9 1.4-1.4 2-.3.4-.6.8-.8 1.2-.4.6-.9 1.1-1.3 1.6s-.9 1-1.3 1.5l-.7.8-.7.7c-.8.8-1.5 1.6-2.2 2.3l-1.2 1.2-.6.6-.3.3c0-.1 0-.4.1-.6l.6-4.8c.1-.8.2-1.6.3-2.3v-.5.1l-.3 1.7-.1.6V211.8c.4-2 .7-4 1-5.9 0 .3-.1.7-.1 1-.1.3-.1.7-.2.7l-.9.9c-.2.2-.4.4-.6.5-.5.5-1.1 1-1.6 1.4-2.1 1.8-4.1 3.2-5.9 4.2-3.3 2.2-5.6 2.9-5.7 2.6zM1051.2 285.3c.9.1 1.4 1.9 1 4-.4 2.1-1.6 3.6-2.4 3.4-.9-.2-1.2-2-.8-4 .4-2 1.3-3.5 2.2-3.4zM1149 457.4c.1.4-5.8 1.6-15.4 2.6-4.8.5-10.6.9-16.9 1.2-6.4.2-13.4.2-20.8-.1-7.4-.3-14.4-.9-20.8-1.6-6.4-.8-12.1-1.6-16.8-2.5-9.5-1.8-15.3-3.4-15.2-3.8.1-.5 6 .4 15.5 1.6 4.8.6 10.4 1.2 16.8 1.8 6.3.5 13.3 1 20.6 1.3 7.3.3 14.3.3 20.6.3 6.3-.1 12.1-.2 16.8-.5 9.6-.4 15.6-.8 15.6-.3zM1105.7 403.9c.1.4-2.9 1.3-7.7 2.2-4.9.8-11.7 1.4-19.2 1.3-7.5-.2-14.3-1.1-19.2-2.1-4.8-1-7.7-2.1-7.6-2.5.2-.9 12.1 1 26.9 1.3 14.6.3 26.6-1.2 26.8-.2z"/></g><g id="Layer_4"><path d="M567.6 626.2c-2.7.9-7.9 2.2-13.9.6-3.4-.9-8.8-2.2-10.6-6.4-1.8-4.1 1.3-7.9-1.4-11.3-1.1-1.4-1.7-.8-3.6-2.5-2.7-2.3-4.9-6.3-4.6-10 .3-3.4 2.5-3.6 4.4-7.6 2.9-6.3 1.7-15.3-2.5-17.7-2.2-1.2-3.4.4-6.9-.6-4.1-1.2-8.5-5.2-9.4-10.7-.8-5.5 2.2-11.1 7.5-13.9-.6-3-1.3-9.5 1.9-16.4 1.4-3 3.9-8.3 9-10 5-1.6 7.5 1.9 11.8-.1 3.7-1.7 2.8-4.7 7.4-9.7 1.2-1.3 6.6-6.7 14.5-7.4 2.6-.2 6.8-.6 9.9 1.9 3.7 3.1 3.5 8.3 5.8 8.5 1.3.1 1.8-1.6 4.2-3.1 2.5-1.5 5-1.6 7.4-1.6 6.9-.1 12.1 3.2 13.9 4.4 3.1 2.1 6.5 4.3 8 8.3 1.2 3.3.3 5 2.1 7.4 1.9 2.5 4.3 1.7 6.9 3.8 5.7 4.5 7.5 10.8 8.2 13.2 1.7 6.1.9 11.1 0 16.4-2.2 12.6-6.2 13-7.6 24.6-.8 6.8-.3 7.6-1.9 12-2.1 5.6-4.3 6.4-7.7 14-2.4 5.3-1.8 6.1-3.6 8-3.6 3.9-9.1 4.2-13.2 4.4-3.1.2-8.3.5-13.2-1.9-10.8-5.2-11.3-19-15.1-18.9-2.3.3-4.9 4.9-7.7 22.3z"/><path fill="#e8bfa5" d="M537.8 589.8c-.2.4-1.9 3.3-5.1 3.7-2.6.4-4.5-1.1-5.1-1.5-4.3-3.2-5.2-10.8-2.3-14.8.6-.8 1.7-1.5 3.8-3 4.1-2.9 5.9-3.2 7.6-4.5 1.9-1.5 3.8-4.6 3.8-11.4l11.4-17.4c1.5 2 3.9 4.5 7.6 6.1 9.5 4.1 18.5-1.9 18.9-2.3 2.9-2 4.7-4.5 5.7-6.1.9 1.3 2.7 3.4 5.7 4.9 1.7.9 5.5 2.9 9.9 1.5 3.3-1 5.3-3.4 6.1-4.5.2 2.1.9 7 4.5 11.7 2.8 3.7 6.1 5.5 8 6.4.1 5.3 1.2 6.8 2.3 7.2 1.3.5 2.3-1.1 5.3-1.9.8-.2 4.6-1.2 7.2.4 3.9 2.4 3.2 9.2 3 11.4-.2 1.8-.9 9.2-5.3 11.1-3 1.3-5.3-1.1-7.8.6-1.3.9-1.5 2.2-2.8 6.1-.9 2.7-2.2 5.2-3 8-1.6 5.5-5.1 9.1-9.1 13.3-2.2 2.2-7.2 7.4-15.5 10.6-6.2 2.4-10.6 4.1-14.4 2.3-1.6-.8-3.5-2.4-6.1-1.9-1.7.3-2.1 1.5-3.4 1.5-3.2.1-5.3-3.7-7.2-5.3-4-3.4-9.3-7.7-14.4-14.8-2.9-3.7-6.5-9.5-9.3-17.4z"/><path fill="#e8bfa5" d="M563.2 635.3c-.3 2.5-.6 6.6.8 11.4.9 3.2 3 10.4 9.8 13.6 5.3 2.5 10.5 1.3 12.5.8 7.7-1.9 11.9-7.5 13.6-9.9 5-6.7 8.2-17.2 4.5-21.2-.6-.7-2.3-2.1-4.5-2.3-2.2-.2-3.2 1.6-4.2 1.1-1.6-.7.5-5-1-7.6-3.3-5.8-24.7-2.6-26.3 4.5-.7 3.2 2.6 6.2 1.1 8.3-1 1.8-3.9 1.6-6.3 1.3zM652.8 905c1.3 4.4 2.5 9.6 3.2 15.5.9 7.2 1 13.7.7 19.1 11.7-.4 23.6-.7 35.6-.7h4.3c.2-6 .1-12.9-.7-20.5-1.1-10.2-3.2-19-5.4-26.3-13.1 2.6-26.1 5.3-39.2 7.9.5 1.6 1 3.3 1.5 5zM409.9 943.1c2.4 5.9 4.9 11.9 7.6 18 5.2 11.8 10.5 23.1 15.8 33.8 1.7-2.5 4.5-5.9 9-8.6 6.8-4.1 14.8-3.4 24.5-2.9 2 .1 3.6.3 4.7.4-2.8-13.6-5.5-27.1-8.3-40.7-2.4-6.6-6.2-10-8.3-11.5-11.1-8.1-27.8-3.7-37.4 3.6-3.6 2.7-6.1 5.7-7.6 7.9zM492.4 445.9c1.6 4.9 3.5 12.4 3.5 21.6-.1 13.6-4.4 23.7-5.6 26.8-4.7 11.9-8.7 33.2-5.2 73.9v4.8c8.2-6.3 14.2-7 18.2-6.5 3.5.5 7.1 2.1 8.6.4 1.4-1.4.4-4.6-.6-7.1 0-3.1.1-7.7.2-13.3.3-17.2.3-25.9.9-30.3 2.1-15 3.6-25.7 9.5-38.5 3.7-8.1 8.7-15.9 9.9-17.7 4.8-7.3 7.1-11 9.9-14.3 3.9-4.5 5.9-5.9 6.9-9.5 1.5-5.5-.4-12.1-3-12.5-1.7-.3-3 2.3-6.5 6.5-4.7 5.7-9.8 11.8-16.4 13.8-5.8 1.8-7.5-1.2-18.2-.4-5.2.5-9.4 1.5-12.1 2.3zM614.2 454.5c-1.4 2.1 1.4 6.9 12 18.4 9.1 10 17.4 17.8 23.9 23.6 2.9 5.4 4.5 10.1 5.5 13.3 4.6 15.3 3.1 29 .7 49.2-.7 6.1-1.5 11-2 14.3 3.8-.8 8.7-1.2 13.7.7 9.3 3.6 13.2 13.2 15 12.3.8-.4 1-2.8-1.4-11.3.4-20.9-1-38.5-2.7-51.9-2-15.7-4-31.1-10.2-46.1-1.2-2.8-4.6-10.7-9.2-20.1-2.9-5.9-5.4-10.7-7.2-14l-5.1-12c-4.2 0-5.6 1.1-6.1 2-2 3.5 5.5 8.7 3.8 15.4-.1.4-1 3.7-3.8 5.1-2.3 1.2-4.8.6-5.8.3-6.5-1.3-19-2.3-21.1.8z"/><path fill="#ff4f03" d="M489.3 572c1.7 10.8 4.6 27.2 10 46.7 10 36.2 17 38.3 24.7 68 11.5 44.3 5.8 74.9 4.5 81.3-2.4 11.8-5.8 21.4-8.5 28 .8 2.6 2.2 6.2 4.7 10 11.6 18.1 34.4 21.6 46 23.3 11.6 1.8 37.7 5.8 60.7-10.7 10.7-7.6 16.8-16.9 20-22.7-2.4-22.1-2.7-40.7-2.4-54.7.7-31.8 4.3-30.3 3.6-50-.2-4.4-.7-15.6 3.5-28.7 1-3.1 1.9-5.5 3.4-8.8 3.9-8.4 8-12.6 13.3-25.9 8.7-22.1 15-38.5 7.3-48.7-5.4-7.2-17.2-10.5-23.3-6.7-3.6 2.2-3.8 5.9-6 12.7-4.3 12.9-12.3 25.1-20.7 32-4.1 3.3-11.9 8.5-25.3 10 .9 2.9 2.5 9.7 0 17.3-.2.7-5.9 17.3-19.3 18-10.6.6-18-9.1-20.7-14.7-1.2-2.6-3.2-6.6-2.8-11.8.3-4.3 2.1-6.7.8-8.2-1.6-1.8-5.4.6-9.3.7-8.4.2-14.9-6.6-19.3-11.3-11.8-12.5-16.6-29.3-18.7-36.7-2.6-9.2-2.7-14.1-6.7-16-5.6-2.4-13.5 2.8-19.5 7.6zM556.9 937.8c.4-1.5 3.7-14.3 15.4-18.4 4.9-1.7 13.7-2.9 17.4 1.5 3.8 4.6-1.5 10.9 3.1 19.5 1.9 3.6 3.3 3.3 5.6 7.2 1.2 2.1 4 7.2 3.6 17.9-.4 11.1-4.3 33.9-12.3 63-2.2-.5-4.4-1-6.7-1.5-5.5-13.8-11-29.2-15.9-46.1-4.4-15.3-7.7-29.8-10.2-43.1zM425.5 1126.9c1.2-4.1 3.1-10.9 5.4-19.4 5.1-18.8 5.7-22.4 9.3-28 6-9.1 14.1-14.2 16.3-15.5 6.8-4.1 9.4-3.3 18.3-9 6.3-4 7.3-5.8 10.2-5.6 7.1.4 12.5 10.2 12.8 18.4.2 4.7-1.4 8.5-2.6 10.8-6.9 8.2-16.9 18.5-30.7 28.2-14.5 10.3-28.5 16.5-39 20.1zM639.1 940.8c-6.2-27.1-6.7-36.1-4.9-36.8 1.4-.5 4.2 3.6 6.2 2.7 1.5-.7.7-3.5 2.7-5.3 1.5-1.4 4.1-1.8 5.8-1.3 7.5 2.2 7.1 24.1 7.1 26.1-.1 5-.8 9.1-1.3 12-5.3.9-10.4 1.8-15.6 2.6zM459.7 982c-3.8.3-9.1 1.3-14.2 4.9-4.8 3.4-11.2 10.5-9.3 15.5 1 2.7 4.4 4.6 5.3 4 1-.7-.3-4.5-.4-4.4-.3 0-.3 8 2.2 8.9 1.9.7 3.4-3.4 8.4-6.6 7.6-4.9 13.3-1.1 16.8-5.8 3-3.9 1.6-10 1.3-11.1-.4-1.6-.8-3.2-2.2-4.4-2.8-2.6-7.4-1.2-7.9-1z"/><path stroke="#000" stroke-miterlimit="10" d="M622.5 571.3c.2 0 .6 2.1.8 6.1 0 2 0 4.4-.3 7.2s-.8 6-1.7 9.4c-.9 3.4-2.2 7.1-4.2 10.9-1.9 3.7-4.4 7.6-7.7 11-3.3 3.5-7.3 6.6-12 8.9l-1.8.9c-.6.3-1.2.5-1.8.8-1.2.5-2.5.9-3.8 1.3-2.6.7-5.3 1.3-8.1 1.5-.7.1-1.4.1-2.1.1h-2.1c-1.4-.1-2.7-.1-4.1-.4-2.7-.3-5.3-1.1-7.8-2.1-2.4-1-4.7-2.2-6.8-3.6-2.1-1.4-4-3-5.7-4.7-3.4-3.3-6.1-7-8.3-10.5-2.2-3.6-3.9-7-5.3-10.3-1.4-3.2-2.5-6.2-3.3-9-.8-2.7-1.2-5.1-1.4-7.1-.3-4 .2-6.2.4-6.1.3 0 .2 2.2.9 6s2.5 9.1 5.5 15.3c1.5 3.1 3.3 6.4 5.5 9.8 2.2 3.3 4.8 6.8 8.1 9.8 1.6 1.6 3.4 2.9 5.3 4.2 1.9 1.3 4 2.4 6.3 3.3 2.2.8 4.6 1.5 7 1.8 1.2.2 2.5.2 3.7.3h1.9c.6 0 1.3 0 1.9-.1 2.5-.2 5-.7 7.4-1.3 1.2-.4 2.4-.7 3.5-1.2.6-.2 1.1-.4 1.7-.7.6-.3 1.1-.5 1.6-.8 4.4-2.1 8.1-5 11.3-8.1 3.1-3.2 5.6-6.7 7.5-10.2 1.9-3.5 3.3-7 4.3-10.3 1-3.3 1.7-6.3 2.1-9 .5-2.7.7-5.1.8-7 .5-3.9.5-6.1.8-6.1z"/><path stroke="#000" stroke-miterlimit="10" d="M593.6 583.6c.3.2-.5 2.6-3.5 5.3-1.5 1.3-3.5 2.7-5.9 3.7-2.4 1-5.3 1.6-8.4 1.6-3.1 0-6-.7-8.4-1.6-2.4-1-4.5-2.2-6-3.4-3.1-2.4-4.3-4.5-4-4.8.4-.3 2.1 1.1 5.3 2.9 3.1 1.7 7.8 3.6 13.2 3.7 5.3 0 10-1.9 12.9-3.9 2.9-2 4.4-3.8 4.8-3.5zM577.9 574.2c-.3.3-1.3-.3-2.4-1.6-1.1-1.4-2.1-3.6-2.4-6.2-.3-2.6.3-5.1 1-6.6.8-1.6 1.6-2.3 2-2.1.8.4-.3 4 .2 8.3.5 4.3 2.3 7.6 1.6 8.2zM556.8 566.5c-.9.1-2-2.6-2.2-6-.1-3.5.8-6.3 1.7-6.2.9.1 1.4 2.8 1.6 6.1.1 3.3-.2 6-1.1 6.1z"/><ellipse cx="600.6" cy="558.3" stroke="#000" stroke-miterlimit="10" rx="1.6" ry="4.9"/><path stroke="#000" stroke-miterlimit="10" d="M576.2 646.2c-.7.5-4-3.1-6.5-8.4-2.5-5.4-3.1-10.2-2.3-10.4.9-.3 2.8 3.9 5.3 9 2.2 5.1 4.2 9.3 3.5 9.8zM588.8 648.5c-.8-.5 1.9-5.4 3.9-11.9 2-6.4 2.5-12 3.5-12 .4 0 .9 1.4 1 3.8.1 2.4-.3 5.7-1.3 9.2-1.1 3.5-2.6 6.4-4 8.3-1.6 1.9-2.8 2.8-3.1 2.6z"/><path stroke="#000" stroke-miterlimit="10" d="M602.5 626.9s0-.1.1-.2.3-.2.5-.1c.5.1.9.5 1.3 1.3.2.7.5 1.6.8 2.7.2 1.1.5 2.3.5 3.8.2 2.9-.1 6.4-1.2 10.3-1.1 3.9-3.3 7.9-6.6 11.6-3.3 3.6-7.7 6.8-13.3 8.1-1.7.4-3.5.5-5.2.3-1.7-.2-3.4-.7-4.9-1.5-3-1.5-5.3-3.6-7.2-5.8-3.7-4.5-5.5-9.6-6.2-13.8-.7-4.3-.3-7.8.2-10.1s1.2-3.5 1.3-3.5c.2.1 0 1.4-.1 3.6-.1 2.3-.1 5.6.8 9.5.9 3.9 2.8 8.4 6.3 12.3 1.7 1.9 3.8 3.7 6.3 4.9 2.5 1.2 5.2 1.5 8 .9 1.1-.3 2.3-.6 3.4-1.1 1.1-.5 2.1-1.1 3.1-1.6 2-1.3 3.7-2.7 5.3-4.3 3-3.2 5.1-6.8 6.4-10.3 1.3-3.5 1.7-6.7 1.8-9.4.1-1.3 0-2.5-.1-3.6-.1-1-.2-1.9-.3-2.6-.1-.5-.3-.9-.5-1.1-.2-.3-.4-.2-.5-.3z"/><path stroke="#000" stroke-miterlimit="10" d="M567.6 629.7c-.1.9-1.3 1.5-2.5 1.5-1.3.1-2.4-.4-2.7-1.3-.2-.9.9-1.9 2.5-2 1.7 0 2.9 1 2.7 1.8zM603 628.1c-.2.9-1.7 1.3-3.3 1.3-.4 0-.8 0-1.2-.1-.1 0-.4 0-.5-.1 0-.1 0 .1-.1-.3-.1-.2-.2-.4-.2-.5l-.1-.1h-.2s-.1 0 0 0c0 0 .1-.1.1-.2 0 .1 0 .2.1.2 0 0 .1 0 0 0h-.1l.1-.1s.1-.1.2-.1c0 0 .1-.1.2.1.1.1.1.3 0 .5s-.2.2-.3.3c-.1.1-.2.1-.4.1s-.4 0-.7-.3c-.1-.2-.2-.4-.2-.6v-.4c.1-.3.2-.6.4-.8.4-.4.7-.5 1-.6.3-.1.4-.2.6-.2.4-.1.9-.2 1.4-.2 2 .1 3.5 1.3 3.2 2.1zM531.4 572.6c-.1.2-.7.1-1.5.3-.8.2-1.9.7-2.7 1.9-.8 1.2-1.3 3.1-1.8 5.2s-.8 4.5-.5 6.8c.2 1.1.5 2.3 1 3.1.5.9 1.2 1.6 1.9 2.2 1.5 1.2 3.3 1.6 4.6 1.3 1.4-.2 2.4-1.1 3-1.7.6-.6 1-1.1 1.2-1 .2.1.3.7-.2 1.7-.4 1-1.4 2.5-3.4 3.2-2 .8-4.8.4-7-1.1-1.1-.7-2.2-1.8-3-3-.8-1.3-1.2-2.7-1.5-4.2-.4-3 .2-5.7.9-8 .4-1.2.7-2.2 1.2-3.2s1-2 1.8-2.7c1.5-1.6 3.3-1.9 4.5-1.7 1.2.1 1.6.7 1.5.9zM623.9 587.8c.1-.2.7-.1 1.8-.1s2.6-.2 4.2-1.1c1.7-.8 3.3-2.3 4.4-4.4 1.1-2.1 1.7-4.9 1.7-7.8 0-1.4-.2-2.8-.6-3.9-.4-1.1-1.1-2.1-2-3-1.7-1.7-3.8-2.6-5.5-3-.9-.2-1.6-.2-2.2 0-.6.2-1.1.5-1.4.8-.7.7-.8 1.3-1 1.3-.1 0-.2-.1-.3-.5-.1-.3 0-.9.3-1.5s.9-1.3 1.8-1.8 2-.7 3.2-.6c2.3.2 5 1 7.3 3.1 1.2 1 2.2 2.4 2.9 4 .7 1.6.9 3.4.9 5.1 0 3.4-.8 6.6-2.4 9.3-.8 1.3-1.7 2.4-2.8 3.3-1.1.9-2.2 1.5-3.3 1.8-2.2.7-4.1.6-5.3.2-1.3-.5-1.8-1.1-1.7-1.2z"/><path stroke="#000" stroke-miterlimit="10" d="M531.3 588.1c.1.1.1.3-.1.5s-.6.4-1.2.4-1.2-.3-1.8-.8c-.3-.3-.5-.6-.7-1-.2-.4-.3-.9-.3-1.5 0-1 .4-2 1-2.8.3-.4.6-.8.9-1.1l.5-.5.3-.3c.1-.1.2-.1.2-.2.1-.3 0-.5-.3-.7-.1-.1-.4-.2-.7-.3-.3-.1-.5-.1-.8-.1-1 0-1.6.5-2 .3-.2-.1-.3-.4-.1-.9.1-.5.6-1.1 1.5-1.5.4-.2.9-.3 1.5-.4h.9c.3 0 .6.1 1 .3.7.3 1.4.8 1.9 1.5s.7 1.6.5 2.5c-.2.7-.6 1.3-1.1 1.8-.4.3-.7.6-1 .9-.3.2-.5.4-.7.7-.4.4-.6.8-.7 1.1-.1.2-.1.5 0 .8.1.3.3.5.4.7.2.4.7.4.9.6zM626.1 576.5c-.4-.2-.6-.7-.8-1.5-.1-.7-.3-1.9.2-3.5.7-1.8 2.2-2.7 3.6-2.7.7 0 1.1.3 1.3.6.2.3.2.6.1.8-.2.4-.8.5-1 .9-.3.3-.7.9-.9 1.5-.3.8-.5 2-1 2.8-.5.9-1.1 1.2-1.5 1.1z"/><path stroke="#000" stroke-miterlimit="10" d="M630.2 579.7c-.4-.2-.7-.6-.9-1.1-.3-.5-.5-.9-.7-1.5-.3-.5-.5-1-.7-1.5-.2-.5-.4-1-.2-1.4.1-.4.7-.7 1.5-.5.8.2 1.8.9 2.3 2.1.5 1.1.5 2.4.1 3.1-.4.7-1 1-1.4.8zM538.5 560.4c.4 0 .8 1.1.9 3 0 .9 0 2.1-.3 3.4-.3 1.3-.9 2.7-1.9 4-2.3 2.7-5.6 3.2-7.7 2.5-1.1-.4-1.8-1-2.1-1.5-.3-.5-.3-.9-.2-1 .4-.3 1.3.3 2.7.3.7 0 1.5-.2 2.4-.5.9-.4 1.7-1 2.3-1.7 1.4-1.7 2-3.9 2.5-5.6.5-1.8.9-2.9 1.4-2.9zM547.4 520.2c-.1.2-1.1-.3-3-.6-1.8-.3-4.6-.3-7.7 1-1.5.7-3.1 1.6-4.4 3-1.3 1.3-2.5 3.1-3.2 5.1-.8 2-1.2 4.3-1.3 6.6 0 1.2 0 2.4.2 3.6 0 .3.1.6.1.9l.1.5.1.5c.2 1.1.6 2.3.9 3.5l-1.8.3c-.6.1-1.1.3-1.7.4-.4.1-.6.2-.9.3-.3.1-.5.2-.8.4-1 .5-2 1.2-2.9 1.9-1.7 1.5-3 3.4-3.9 5.4-1.7 3.9-1.6 8.1-.2 11 .7 1.4 1.7 2.5 2.7 3.3 1 .8 2 1.3 2.9 1.6 1.8.6 2.9.5 2.9.8 0 .2-1.1.7-3.2.5-1.1-.1-2.3-.6-3.6-1.4-1.3-.8-2.6-2-3.6-3.8-2-3.4-2.4-8.4-.6-13.2.9-2.4 2.4-4.7 4.5-6.6 1-.9 2.2-1.8 3.5-2.5.3-.2.7-.3 1-.5l1-.4.3-.1h.2l-.1-.5-.1-.5-.1-.5c-.1-.3-.1-.7-.1-1-.2-1.4-.2-2.8-.2-4.1.1-2.7.7-5.4 1.7-7.7s2.4-4.4 4.2-5.9c1.7-1.5 3.6-2.5 5.4-3.1 3.6-1.2 6.9-.9 8.8-.1 2.3.9 3 1.8 2.9 1.9zM587.7 514.1c-.2.1-.7-.5-1.6-1.6-.8-1.1-2-2.8-3.5-4.6-1.6-1.8-3.5-3.8-6.3-5-2.7-1.2-6.1-1.8-9.5-1.3-3.5.5-6.5 1.9-8.8 3.8-2.4 1.9-4.1 4.2-5.2 6.2-2.3 4.1-2.8 7.2-3.3 7.2-.2 0-.4-.8-.3-2.3.1-1.4.5-3.5 1.5-5.9 1-2.4 2.7-5.1 5.4-7.5 2.6-2.4 6.3-4.3 10.4-4.8 4.1-.6 8.1.2 11.3 1.8 1.6.8 3 1.9 4.1 3 1.1 1.1 2 2.2 2.7 3.3 1.4 2.2 2.3 4 2.8 5.4.3 1.4.4 2.2.3 2.3zM637 565.1c-.2-.1.3-1.3.8-3.6.5-2.2.8-5.5.2-9.6-.3-2-.7-4.2-1.3-6.6-.6-2.4-1.3-4.9-2.3-7.3-.5-1.2-1.2-2.2-2.1-3.1-.9-.9-1.9-1.6-3.1-2-.6-.2-1.2-.3-1.7-.3s-1.3.2-2.2.2c-.5 0-.9.1-1.5 0-.7-.1-1.4-.3-1.9-.8-.3-.2-.5-.5-.7-.8-.2-.3-.3-.6-.4-.9-.1-.3-.1-.7-.2-1v-.6c-.3-6-3.4-11.3-7.3-14.6-4-3.4-8.8-4.6-12.8-4.7-4-.1-7.2.9-9.3 1.8-2.1.9-2.8 2-3 1.9-.1-.1 0-.4.3-1s1-1.3 2.1-2c2.1-1.3 5.4-2.8 9.9-3 2.2-.1 4.7.1 7.2.9 1.3.4 2.5.9 3.8 1.5 1.3.6 2.5 1.4 3.7 2.4 4.7 3.7 8.3 9.8 8.7 16.8v.8c0 .1.1.2.1.2.1.1.2.1.3.1h.8c.7 0 1.4-.2 2.4-.2s1.9.2 2.8.5c3.5 1.2 5.7 4.2 6.9 6.9 1.2 2.8 1.7 5.4 2.2 7.9.5 2.5.9 4.8 1 7 .3 4.3-.3 7.9-1.3 10.2-1 2.1-1.9 3.1-2.1 3zM584.4 537.3c.2.1.1 1-.7 2.4-.7 1.4-2.1 3.4-4.3 5.2-2.2 1.8-5.4 3.6-9.3 4.2-1.9.3-4 .4-6.1.1-2.1-.3-4.2-.9-6.3-1.7-1.4-.6-2.8-1.4-4.1-2.3-.3-.2-.6-.4-.9-.7l-.4-.3-.1-.1c-.1-.1-.3-.2-.4-.4-.1.1-.2.3-.3.5-.1.2-.2.5-.4.7-.2.3-.4.7-.5 1-.7 1.3-1.5 2.5-2.2 3.7-1.5 2.2-3 4.1-4.4 5.6-2.7 2.9-4.6 4.2-4.9 4-.3-.3 1.2-2.1 3.3-5.2 1.1-1.6 2.3-3.5 3.6-5.7.6-1.1 1.3-2.3 1.9-3.6.2-.3.3-.6.5-1l.2-.5.4-.9c.5-1.2 1.1-2.5 1.6-3.7l2.7 2.4c.2.2.5.4.7.6l.5.3c.3.2.5.4.8.6 1.1.7 2.3 1.4 3.5 1.9 1.8.8 3.6 1.3 5.4 1.6 1.8.3 3.6.3 5.2.1 3.3-.4 6.2-1.7 8.4-3.1 2.2-1.4 3.7-3 4.6-4.1 1.3-1 1.8-1.7 2-1.6z"/><path stroke="#000" stroke-miterlimit="10" d="M623.2 568.5c0 .1-.2.3-.9.3-.6-.1-1.5-.5-2.1-1.6-.6-1-.7-2.4-.8-3.7-.1-.7-.1-1.4-.2-2.2v-.8c0-.2 0-.4-.1-.4H618.5l-.6-.1c-.8-.2-1.6-.5-2.3-.9-1.5-.8-2.7-2-3.8-3.4-1.1-1.3-2-3-2.7-4.5-.7-1.6-1.4-3.2-2.1-4.7-.4-.9-.9-1.7-1.4-2.4-.1-.2-.3-.4-.4-.5l-.1-.1c-.1-.1-.2-.2-.3-.2-.2.2-.1.1-1.1.7-.8.5-1.6.9-2.4 1.1-1.6.6-3.3.9-4.9.9-3.2 0-5.9-1-7.8-2.3-1.9-1.3-3.1-2.7-3.7-3.8-.6-1.1-.8-1.7-.6-1.8.2-.1.6.4 1.5 1.1.8.8 2.1 1.8 3.8 2.7 1.8.9 4.1 1.5 6.6 1.3 1.3-.1 2.6-.4 3.9-.9.6-.3 1.3-.6 1.9-1 .3-.2.5-.3 1.2-.9.6-.5 1.1-1 1.7-1.5.6.5 1.2 1.1 1.9 1.7.3.3.6.6.9 1 .2.2.3.4.5.7.7.9 1.2 1.9 1.7 2.9.8 1.7 1.5 3.3 2.2 4.8.7 1.5 1.3 2.8 2.2 4 .8 1.2 1.8 2.1 2.8 2.8.5.3 1 .6 1.5.8.2 0 .2.1.4.1.3 0 .6.1.9.1.6.1 1.1.1 1.6.1.1.6 0 1.3 0 2v1.6c0 .8-.1 1.5-.1 2.2-.1 1.4-.2 2.4.1 3.2.2.7.7 1.2 1 1.4.4 0 .7.1.7.2zM561.4 626.9c-.1.1-.3-.1-.5-.1-.3-.1-.6 0-1.2.1-.3.1-.6.2-.9.4-.3.1-.8.3-1.3.5-1 .3-2.1.5-3.4.6-2.6.1-5.7-.6-8.6-2.7-2.9-2.1-5.1-5.6-5.6-9.6-.1-1-.2-2-.1-3 0-.5.1-1 .2-1.5s.2-.9.2-1.1c0-.1 0-.2-.1-.3 0-.1-.1-.1-.1-.1-.1-.1-.2-.1-.3-.2-.5-.3-1.2-.6-2-1-1.7-.8-2.9-2-3.9-3.3-.9-1.3-1.5-2.6-1.8-3.9-.7-2.6-.3-4.7.3-6 .6-1.3 1.2-1.9 1.3-1.8.2.1 0 .8-.1 2.1-.1 1.2-.1 3 .7 5 .8 2 2.3 4.1 4.7 5.2.6.3 1.4.5 2.4 1.1.2.1.5.3.7.5.3.2.5.5.7.8.4.6.6 1.3.6 2.1 0 .7-.2 1.1-.2 1.5-.1.4-.1.7-.1 1.1 0 .8 0 1.5.1 2.3.4 3.2 2.1 5.9 4.2 7.7 2.2 1.7 4.7 2.5 6.8 2.7 1.1.1 2.1.1 2.9 0 .4-.1.8-.1 1.2-.2.4-.1.8-.1 1.2-.1.7 0 1.4.2 1.7.6.5.3.4.5.3.6zM602.7 625.6c0-.2.7-.5 2-.9s3.2-.8 5.4-1.6c1.1-.4 2.2-.8 3.4-1.5.6-.3 1.1-.7 1.7-1 .5-.4 1.1-.8 1.5-1.3 1-1 1.8-2.2 2.4-3.6.5-1.4.8-2.9.5-4.3-.1-.4-.2-.7-.3-1l-.2-.5c-.1-.2-.1-.4-.2-.6-.1-.4-.1-.8 0-1.2.1-.8.5-1.4 1.1-2l.4-.4.3-.2c.2-.1.4-.3.6-.4 1.3-.8 2.4-1.9 3.3-3 1.8-2.2 2.9-4.7 3.5-6.9 1.1-4.4.3-7.4.8-7.5.1 0 .3.1.4.4.2.3.4.8.6 1.5.4 1.3.7 3.4.4 6-.3 2.5-1.3 5.5-3.4 8.3-1 1.4-2.3 2.7-3.9 3.8-.2.2-.4.2-.5.4l-.2.2-.1.1c-.1.1-.1.2-.2.3V609l.1.2c.2.5.4 1 .5 1.6.5 2.2.1 4.4-.7 6.2-.8 1.8-1.9 3.3-3.2 4.5-.6.6-1.4 1.1-2.1 1.6-.7.4-1.4.8-2.1 1.1-1.4.6-2.7 1-4 1.2-2.5.5-4.4.6-5.8.6-1.2-.1-2-.2-2-.4zM497.4 477.9c-.8.3-3.9-6.5-5.5-15.6-1.6-9-1.1-16.5-.3-16.5.9 0 1.9 7.2 3.5 15.9 1.6 8.9 3.1 16 2.3 16.2zM514.2 681.1c-.2.1-1.6-2.3-3.9-6.7-.6-1.1-1.2-2.3-1.9-3.7-.7-1.4-1.3-2.9-2.1-4.5-1.5-3.2-3.2-6.9-4.8-11.1-.8-2.1-1.7-4.3-2.6-6.5-.9-2.3-1.6-4.7-2.5-7.2-1.8-5-3.3-10.4-4.9-16.1-3-11.5-5.6-24.2-7.3-37.8-1.6-13.6-2.1-26.6-1.9-38.5.2-5.9.4-11.5.9-16.8.2-2.6.4-5.2.7-7.6.3-2.4.6-4.7.9-7 .5-4.4 1.4-8.4 2-11.9.3-1.7.6-3.4 1-4.9.4-1.5.7-2.8 1-4 1.2-4.8 2-7.5 2.2-7.4.2.1-.1 2.8-1 7.7-.2 1.2-.5 2.6-.7 4.1-.2 1.5-.4 3.1-.7 4.9-.5 3.5-1.2 7.5-1.5 11.9-.2 2.2-.5 4.5-.7 6.9-.2 2.4-.3 4.9-.5 7.5-.4 5.2-.5 10.8-.6 16.6 0 11.7.6 24.6 2.1 38 1.7 13.4 4.2 26.1 7 37.4 1.5 5.6 2.9 11.1 4.6 16 .8 2.5 1.5 4.9 2.3 7.2.8 2.3 1.6 4.5 2.4 6.6 1.4 4.2 3 7.9 4.3 11.2.7 1.6 1.3 3.2 1.8 4.6.6 1.4 1.2 2.6 1.7 3.8 1.9 4.6 2.9 7.2 2.7 7.3zM527.1 464.1c.5.2-1.5 4.9-4.1 12.7-.3 1-.7 2-1 3-.4 1.1-.7 2.2-1 3.3-.7 2.3-1.4 4.8-2.1 7.4-1.4 5.2-2.7 11-3.7 17.2-1 6.1-1.7 12-2.1 17.4-.2 2.7-.4 5.3-.4 7.7 0 1.2-.1 2.4-.1 3.5v3.2c-.1 8.2.2 13.3-.3 13.3-.4 0-1.5-5-2-13.3-.1-1-.1-2.1-.2-3.3 0-1.1 0-2.3-.1-3.5-.1-2.4.1-5.1.1-7.8.3-5.5.9-11.5 1.9-17.8 1.1-6.3 2.5-12.1 4-17.4.8-2.6 1.6-5.1 2.4-7.4.4-1.1.8-2.3 1.2-3.3.4-1 .8-2.1 1.2-3 3.3-7.7 6-12.1 6.3-11.9z"/><path stroke="#000" stroke-miterlimit="10" d="M527.5 467c-.2-.1-.1-1.2.8-3.1.9-1.9 2.7-4.3 5.1-7 2.3-2.7 5.1-5.9 7.8-9.6 2.7-3.7 5.2-8.1 6.1-13.2.4-2.1.5-4.1.3-6.1-.1-.5-.1-1-.2-1.4l-.1-.7c0-.2-.1-.4-.2-.6l-.3-.6c-.1-.1-.2-.2-.4-.2-.1 0-.3.1-.4.2l-.2.1-.3.2-.5.5c-.7.6-1.3 1.3-2 1.9-1.3 1.2-2.5 2.4-3.7 3.5-2.4 2.2-4.5 4.1-6.2 5.7-3.5 3.1-5.7 4.8-6 4.6-.3-.2 1.5-2.4 4.7-5.9 1.6-1.8 3.5-3.8 5.7-6.2 1.1-1.2 2.3-2.4 3.5-3.7.6-.6 1.3-1.3 1.9-2l.5-.5.3-.3c.1-.1.2-.2.4-.3.6-.5 1.3-.9 2.1-1 .8-.1 1.7.2 2.3.8.7.5 1.2 1.5 1.4 2l.3.9.2.8c.1.6.2 1.1.3 1.7.3 2.3.2 4.7-.3 7.1-1.1 5.7-4 10.6-6.9 14.4-3 3.8-6 6.8-8.6 9.4-2.6 2.5-4.5 4.5-5.7 6.1-1 1.6-1.5 2.6-1.7 2.5zM651.6 498.1c-.2.3-3.3-1.2-7.8-4.5-2.2-1.6-4.8-3.7-7.5-6.2s-5.5-5.3-8.3-8.5c-2.8-3.2-5.2-6.4-7.3-9.4-2.1-3-3.8-5.8-5.1-8.3-2.6-4.9-3.8-8.1-3.4-8.3.9-.5 7.3 11.4 18.2 23.9 10.9 12.4 21.8 20.5 21.2 21.3zM668.6 468.9c-.5.1-1.6-3.9-4.3-10-2.6-6.1-7-14.3-13.6-22-1.6-2-3.2-3.7-4.9-4.1-.8-.2-1.7-.1-2.3.2-.3.2-.6.4-.7.6-.2.2-.2.5-.3.8-.1.7.2 1.7.5 2.7.3 1 .5 2 .8 2.9.5 1.9 1 3.7 1.5 5.3 2 6.4 3.4 10.3 3 10.5-.4.2-2.6-3.4-5.2-9.7-.6-1.6-1.3-3.3-1.9-5.2-.3-1-.6-1.9-1-3-.3-1-.7-2.1-.7-3.6 0-.8.2-1.6.7-2.4.5-.7 1.1-1.3 1.8-1.7 1.4-.8 3-1 4.6-.6 1.5.4 2.8 1.2 3.9 2.2 1.1.9 1.9 2 2.8 3 6.8 8 11.1 16.7 13.2 23.2 2.1 6.6 2.5 10.9 2.1 10.9zM652.8 665.8c-.2-.1.9-2.7 3-7.4s5.2-11.4 8.7-19.7c3.6-8.4 7.8-18.4 11.2-29.9 3.4-11.5 6.1-24.4 7.4-38.2 1.3-13.8 1.2-27 .1-38.9-.3-3-.5-5.9-1-8.7l-.6-4.2c-.1-.7-.2-1.4-.3-2-.1-.7-.2-1.3-.4-2-.5-2.6-.9-5.2-1.4-7.6-.6-2.4-1.1-4.7-1.6-6.9-4.4-17.6-9.1-28-8.5-28.2.2-.1 1.5 2.4 3.6 7.1.6 1.2 1 2.5 1.6 4 .6 1.5 1.2 3 1.8 4.7.2.4.3.9.5 1.3.1.4.3.9.4 1.4.3.9.6 1.9.9 2.9.3 1 .6 2 1 3 .3 1 .7 2.1.9 3.2.6 2.2 1.2 4.5 1.8 7 .6 2.4 1.1 5 1.6 7.6.1.7.3 1.3.4 2l.3 2.1c.2 1.4.4 2.8.7 4.2.5 2.8.8 5.8 1.1 8.8 1.3 12.1 1.5 25.5.1 39.5-1.3 14-4.2 27.1-7.8 38.7-3.7 11.6-8.1 21.6-12 29.9-3.9 8.3-7.3 14.9-9.7 19.4-2.1 4.6-3.6 7-3.8 6.9zM614.8 625.4c-.1-.2 1.8-.9 4.9-2.5 3.1-1.7 7.4-4.4 11.8-8.9 4.4-4.4 8.7-10.6 12.2-18.2 3.5-7.5 6.3-16.4 8.4-25.8 4.3-18.9 4.2-36.6 3-49.2-1.3-12.6-3.3-20.3-2.8-20.4.2-.1.9 1.8 1.9 5.3.9 3.5 2.2 8.5 3.1 14.9.9 6.4 1.5 14.1 1.3 22.6-.2 8.5-1.2 17.9-3.4 27.5-2.2 9.6-5.1 18.6-8.9 26.3-3.7 7.7-8.5 14.1-13.3 18.5-4.8 4.5-9.5 7-12.9 8.4-3.2 1.5-5.2 1.7-5.3 1.5zM558.7 628.7c0 .2-1.1.4-3.2.3-2.1-.1-5.1-.6-8.6-1.9-3.5-1.3-7.4-3.5-11.3-6.6-3.8-3.1-7.5-7.2-10.5-12s-5.2-9.7-6.8-14.3c-1.6-4.6-2.8-8.8-3.6-12.3-1.6-7.1-2.2-11.6-1.8-11.7.5-.1 1.9 4.2 4 11 1.1 3.4 2.4 7.5 4.2 11.9 1.7 4.4 3.9 9.1 6.8 13.6s6.3 8.4 9.7 11.5c3.5 3.1 7 5.3 10.2 6.8 3.2 1.5 5.9 2.3 7.9 2.7 1.9.6 3 .8 3 1zM512.3 569.5c-.4.2-1.5-1.2-3.9-1.9-1.2-.4-2.6-.6-4.3-.4-1.7.1-3.5.6-5.6 1.1-4.1 1-7.5 2.3-9.7 3.7-2.2 1.4-3.3 2.7-3.8 2.4-.2-.1-.1-.6.2-1.4.3-.8 1-1.8 2.2-2.9 1.1-1.1 2.6-2.1 4.4-2.9 1.8-.9 3.8-1.6 5.9-2.1 2.1-.6 4.3-1 6.3-1 2.1 0 4 .5 5.4 1.3 1.4.8 2.3 1.8 2.7 2.6.4.9.4 1.4.2 1.5z"/><path stroke="#000" stroke-miterlimit="10" d="M677.9 579.8c-.4.3-1.5-.5-3.3-1.6-.9-.6-2-1.2-3.3-1.8-1.3-.6-2.7-1.2-4.2-1.7s-3-.8-4.4-1c-1.4-.2-2.6-.3-3.7-.4-2.1-.1-3.6-.1-3.7-.6-.1-.4 1.1-1.2 3.5-1.7 1.2-.3 2.6-.4 4.2-.3 1.6.1 3.3.4 5.1.9 1.7.6 3.3 1.3 4.7 2.2 1.3.9 2.4 1.8 3.3 2.6 1.6 1.7 2.1 3.1 1.8 3.4zM514.3 795.3c-.5-.2 3.1-6.6 4.6-17.9.8-5.6 1.2-12.5 1.4-20.1.2-7.6 0-16-.7-24.7-1.4-17.5-4.8-33.1-7.7-44.2-3-11.1-5.4-17.9-5-18 .4-.1 3.6 6.3 7.2 17.4 3.6 11.1 7.4 26.8 8.8 44.6.7 8.9.8 17.4.5 25.1-.3 7.7-1 14.6-2.1 20.4-1.1 5.8-2.7 10.3-4.2 13.2-1.5 2.8-2.7 4.3-2.8 4.2zM652.5 798c-.2 0-.7-1.9-1.4-5.5-.2-.9-.3-1.9-.5-3s-.3-2.3-.5-3.6c-.3-2.6-.8-5.5-1.1-8.7-.2-1.6-.3-3.3-.5-5.1-.2-1.8-.3-3.6-.4-5.5-.3-3.8-.4-7.9-.6-12.2-.2-8.6-.1-18.1.4-28 .5-9.9 1.4-19.4 2.3-27.9 1-8.6 2.1-16.2 3.1-22.6 2.1-12.8 3.9-20.7 4.3-20.6.5.1-.5 8.1-2 20.9-.8 6.4-1.6 14.1-2.4 22.6-.8 8.5-1.5 17.9-2.1 27.8-.5 9.9-.7 19.3-.6 27.8.1 4.3.1 8.3.3 12.1.1 1.9.1 3.7.2 5.5.1 1.8.2 3.5.3 5.1.8 12.9 1.7 20.8 1.2 20.9z"/><path stroke="#000" stroke-miterlimit="10" d="M647.7 806.3c.1.1-.2.5-.9 1.3-.3.4-.7.9-1.2 1.5-.2.3-.5.6-.8.9l-1 1c-.7.7-1.5 1.4-2.3 2.3-.9.8-1.9 1.6-2.9 2.5-1 .9-2.3 1.7-3.5 2.7-1.3 1-2.7 1.8-4.2 2.7-.4.2-.7.5-1.1.7-.4.2-.8.4-1.2.7-.8.4-1.6.9-2.5 1.3-.8.5-1.7.8-2.6 1.3-.9.4-1.8.9-2.8 1.3-1.9.7-3.9 1.6-6 2.3-1 .3-2.1.7-3.2 1l-3.3.9c-4.5 1.1-9.3 2-14.3 2.3-5 .4-10.3.3-15.6-.3-5.3-.6-10.4-1.7-15.3-3.2-4.8-1.4-9.3-3.3-13.5-5.3-1-.5-2.1-1-3.1-1.5s-2-1.1-2.9-1.6c-1.9-1-3.7-2.3-5.4-3.3-1.7-1.2-3.3-2.3-4.8-3.4-1.5-1.2-3-2.3-4.3-3.4-5.3-4.5-9.1-8.7-11.5-11.7-.6-.7-1.1-1.4-1.6-2-.4-.6-.8-1.1-1.1-1.6-.6-.9-.8-1.3-.7-1.4.2-.2 1.7 1.4 4.3 4.1 2.7 2.8 6.7 6.6 12 10.8 1.3 1.1 2.8 2.1 4.3 3.2s3.1 2.1 4.8 3.2c1.7 1 3.5 2.1 5.4 3.1.9.5 1.9 1 2.9 1.5s2 .9 3 1.4c8.1 3.8 17.6 6.7 27.9 7.9 5.1.6 10.2.6 15 .3 4.9-.3 9.5-1.1 13.9-2 1.1-.3 2.2-.5 3.2-.8 1.1-.3 2.1-.6 3.1-.9 2-.6 3.9-1.4 5.8-2 .9-.4 1.8-.8 2.7-1.1.9-.4 1.8-.7 2.6-1.2l2.4-1.2 1.2-.6c.4-.2.7-.4 1.1-.6 1.5-.9 2.9-1.6 4.2-2.5 1.3-.8 2.5-1.6 3.6-2.4 1.1-.8 2.1-1.5 3-2.2.9-.7 1.7-1.4 2.5-2 .4-.3.7-.6 1.1-.8.3-.3.6-.5.9-.8.6-.5 1-.9 1.4-1.2.7-1 1.2-1.3 1.3-1.2zM493.3 1048.8c-.2.1-1.4-2-3.3-5.9-.9-2-2.1-4.4-3.3-7.2-1.2-2.9-2.6-6.1-3.9-9.8-2.8-7.3-5.7-16.1-8.5-26.1s-5.4-21-7.6-32.7c-2.2-11.7-3.9-22.9-5.3-33.1-1.4-10.2-3.1-19.2-5.5-26.5-1.1-3.7-2.5-6.9-3.7-9.7l-1.9-3.8c-.7-1.1-1.2-2.2-1.8-3.1-.6-.9-1.1-1.7-1.6-2.4s-.9-1.2-1.2-1.7c-.7-.9-1-1.5-.9-1.5.1-.1.6.3 1.4 1.1l1.5 1.5c.5.7 1.2 1.4 1.8 2.3.7.9 1.3 1.9 2.1 3 .7 1.1 1.4 2.4 2.2 3.8 1.4 2.8 3 6 4.3 9.7 2.7 7.4 4.6 16.6 6.2 26.8 1.6 10.2 3.3 21.3 5.5 32.9 2.2 11.6 4.7 22.6 7.3 32.5 2.6 9.9 5.3 18.7 7.8 26.1 4.9 14.7 8.9 23.5 8.4 23.8zM454.8 1052.8c-.3 0 0-2.3-.7-6.1-.4-1.9-1.1-4.2-2.2-6.8-1.1-2.6-2.6-5.4-4.5-8.4-7.6-12.1-18.5-28.7-29.5-47.7-5.5-9.5-10.5-18.7-14.7-27.2-4.2-8.5-7.5-16.5-10.1-23.2-1.2-3.4-2.4-6.4-3.2-9.2-.8-2.7-1.6-5.1-2.1-7-1-3.9-1.5-6.1-1.2-6.1.5-.2 3.1 8.3 8.7 21.5 2.8 6.6 6.3 14.3 10.7 22.7 4.3 8.4 9.3 17.5 14.8 26.9 11 18.9 21.6 35.6 28.7 48.1 1.8 3.2 3.2 6.2 4.2 8.9s1.5 5.2 1.7 7.3c.3 4.1-.5 6.4-.6 6.3zM419.3 1128.8c-.4 0-.6-4.6.3-12 .1-.9.3-1.9.4-2.9.2-1 .4-2 .6-3.1.4-2.2 1-4.4 1.5-6.8 1.3-4.8 3-9.9 5.2-15.2 2.3-5.2 4.8-10 7.4-14.2 1.3-2.1 2.6-4.1 3.9-5.8.6-.9 1.2-1.8 1.9-2.6.6-.8 1.2-1.6 1.8-2.3 4.7-5.8 8.2-8.8 8.5-8.5.4.3-2.5 3.9-6.7 9.9-.5.8-1.1 1.5-1.6 2.4-.6.8-1.1 1.7-1.7 2.6-1.2 1.8-2.3 3.8-3.5 5.8-2.4 4.2-4.8 8.9-7 14s-3.9 10.1-5.3 14.7c-.7 2.3-1.3 4.5-1.8 6.6-.3 1-.5 2-.7 3-.2 1-.4 1.9-.6 2.8-1.5 7.1-2.1 11.6-2.6 11.6z"/><path stroke="#000" stroke-miterlimit="10" d="M466.2 1063.4c-.4.2-1.2-.9-2.6-2.3-1.3-1.4-3.4-3-6.1-3.8-2.7-.8-5.3-.6-7.2-.2-1.9.4-3.1.9-3.4.5-.3-.3.5-1.6 2.6-2.7 2-1.1 5.4-1.8 8.9-.7s5.9 3.5 7 5.5c1.2 2.1 1.2 3.5.8 3.7z"/><path stroke="#000" stroke-miterlimit="10" d="M488 1044c-.2.1-.6-.3-1.2-.7-.6-.4-1.7-.8-3-.8-2.7-.1-6.8 1-10.1 3.8-3.2 2.8-4.8 6.8-6 9.6-.3.7-.6 1.4-.8 1.9-.1.3-.3.6-.4.8-.1.1-.1.2-.2.3 0 0-.1.1-.1.2-.1.3-.1.6-.1.6v.2c.1 0 .1.1.2.1v.2c-.1.1-.3.2-.5.1-.4-.2-.7-.6-.8-1.2v-.9c0-.3.1-.6.1-.9.1-.6.2-1.3.4-2.1.3-1.6.8-3.4 1.7-5.5.9-2 2.3-4.2 4.3-5.9 2-1.7 4.3-2.9 6.5-3.4 1.1-.3 2.2-.4 3.2-.5 1-.1 2 0 2.9.3 1.7.4 3 1.4 3.6 2.2.6.9.5 1.5.3 1.6zM502.4 1077c-.9.1-2.6-6.5-5.6-14.2-2.9-7.8-6-13.9-5.2-14.4.4-.2 1.7 1 3.3 3.4 1.6 2.3 3.5 5.8 5 9.9 1.5 4.1 2.4 7.9 2.8 10.7.2 2.8.1 4.5-.3 4.6zM497.9 1072.4c.2 0 .1 1.5-.9 3.7-1.1 2.3-3.3 5.1-6.1 8.3-5.7 6.5-14.2 15-24.8 22.9-10.6 7.9-21 13.9-28.8 17.5-7.8 3.7-12.9 5.3-13.1 4.9-.2-.5 4.6-2.8 12-6.9 7.5-4.1 17.5-10.3 27.9-18.1 10.4-7.8 19-15.8 25.1-21.9 3.1-3 5.4-5.5 6.7-7.4 1.3-1.8 1.8-3.1 2-3zM450.3 1077.2c.1.3-1 1-3 1.7-1 .3-2.2.7-3.7 1-.9.2-.9.2-1.2.3-.2.1-.4.1-.6.2l.7.7.2.2.6.7c.4.5.8.9 1.2 1.4.9 1.1 1.9 2.1 2.8 3.2 1 1.1 1.9 2.3 2.9 3.3H441.4c-1.6-.1-3.1-.2-4.3-.3-2.4-.2-3.8-.6-3.8-.9s1.4-.7 3.8-1c1.2-.2 2.6-.3 4.3-.4h1c.1 0 .3 0 .4-.1.2 0 .4-.1.7-.1l-.5-.5-.2-.2c-.2-.2-.4-.4-.5-.6-1-1.1-1.9-2.2-2.8-3.2-1.3-1.5-2.6-3-3.7-4.3 1.6-.1 3-.1 4.5-.2 1.3-.1 2.8-.2 3.3-.2 1.4-.1 2.6-.2 3.6-.3 1.8-.7 3-.8 3.1-.4zM586.5 1036.6c-.4.2-3.6-5.5-7.8-15.1-1.1-2.4-2.2-5-3.3-7.9-1.2-2.9-2.3-6-3.6-9.2-2.4-6.5-4.8-13.8-7-21.5-2.2-7.7-4-15.2-5.4-22-.7-3.4-1.3-6.6-1.8-9.7-.5-3-1-5.9-1.3-8.5-1.4-10.4-1.7-16.9-1.3-17 .5-.1 1.6 6.3 3.6 16.6.5 2.6 1 5.4 1.7 8.4.6 3 1.4 6.2 2.1 9.6 1.6 6.7 3.4 14.1 5.6 21.7 2.2 7.6 4.5 14.9 6.7 21.4 1.1 3.3 2.2 6.4 3.2 9.2 1 2.9 2 5.6 3 8 3.6 9.8 6 15.8 5.6 16zM673.7 887.1c-.1.2-3.1-.4-8.5-1.6-1.3-.3-2.8-.7-4.5-1-1.7-.3-3.5-.6-5.4-1-3.9-.7-8.2-1.6-13.2-2.2-2.4-.3-5-.7-7.7-1.1-2.7-.4-5.5-.5-8.4-.8-1.4-.1-2.9-.3-4.4-.4-.7-.1-1.5-.2-2.3-.2-.8 0-1.5-.1-2.3-.1-3.1-.1-6.3-.3-9.5-.5-13-.3-27.4.1-42.4 1.8-15 1.8-29 4.7-41.7 7.9-3.1.9-6.2 1.8-9.2 2.6-.7.2-1.5.4-2.2.6-.7.2-1.4.5-2.2.7-1.4.5-2.8.9-4.2 1.4-2.7.9-5.4 1.8-8 2.7-2.5 1-4.9 1.9-7.2 2.8-4.7 1.7-8.7 3.6-12.3 5.2-1.8.8-3.5 1.5-5 2.2-1.5.7-2.9 1.4-4.1 2-5 2.4-7.8 3.7-7.9 3.5-.1-.2 2.5-1.8 7.3-4.6 1.2-.7 2.6-1.5 4-2.3 1.5-.8 3.2-1.6 4.9-2.5 3.6-1.7 7.6-3.8 12.2-5.6 2.3-1 4.7-2 7.2-3s5.2-1.9 8-2.9l4.2-1.5c.7-.2 1.4-.5 2.2-.8.7-.2 1.5-.4 2.2-.7 3-.9 6.1-1.8 9.2-2.8 12.7-3.5 27-6.4 42.1-8.3 15.1-1.7 29.7-2 42.9-1.5 3.3.2 6.5.4 9.6.6.8 0 1.6.1 2.3.1.8.1 1.5.2 2.3.2 1.5.2 3 .3 4.4.5 2.9.4 5.7.6 8.4 1 2.7.5 5.3.9 7.7 1.3 4.9.7 9.3 1.9 13.2 2.7 1.9.5 3.7.8 5.4 1.3 1.6.5 3.1.9 4.4 1.3 5.6 1.8 8.6 2.8 8.5 3z"/><path stroke="#000" stroke-miterlimit="10" d="M739.6 882.7c-.1.3-2.6-.4-7.2-1s-11.4-.8-19.6 0c-8.3.8-18.1 2.7-28.9 5-10.8 2.3-22.6 5.2-35 8.6-24.7 6.8-46.8 13.7-62.9 18.4-8.1 2.3-14.6 4.2-19.1 5.4-4.5 1.2-7.1 1.8-7.2 1.6s2.3-1.2 6.8-2.8c4.4-1.6 10.9-3.8 18.8-6.4 8-2.6 17.5-5.7 28.1-9 10.6-3.3 22.3-6.9 34.7-10.3 12.4-3.4 24.3-6.2 35.2-8.4 10.9-2.1 20.8-3.8 29.3-4.4 8.5-.6 15.4.1 20 1 4.7 1 7.1 2.1 7 2.3zM780.9 927.7c.1.2-2.2 1.1-6.3 2.4-1 .3-2.2.7-3.5 1.1-1.3.4-2.7.7-4.2 1.1-3 .7-6.4 1.7-10.3 2.3-1.9.4-3.9.7-6 1.1-2.1.4-4.3.6-6.6.9-4.5.7-9.4 1.1-14.6 1.6-10.3.8-21.6 1.3-33.4 1.6-11.9.2-23.1.4-33.4.7-5.1.2-10 .3-14.5.6-2.3.1-4.5.2-6.6.4-2.1.2-4.1.3-6.1.5-3.9.2-7.3.7-10.4 1-1.5.2-3 .3-4.3.5-1.3.2-2.5.4-3.6.5-4.3.6-6.7.8-6.7.6 0-.2 2.3-.9 6.5-1.8 1.1-.2 2.2-.5 3.5-.8 1.3-.3 2.7-.5 4.3-.7 3.1-.5 6.5-1.1 10.4-1.5 1.9-.2 4-.5 6.1-.7 2.1-.2 4.3-.4 6.6-.6 4.6-.4 9.4-.7 14.6-.9 10.3-.5 21.6-.7 33.4-1 11.8-.3 23.1-.6 33.3-1.3 5.1-.4 9.9-.7 14.5-1.3 2.3-.3 4.4-.5 6.5-.7 2.1-.3 4.1-.6 6-.9 3.8-.5 7.2-1.2 10.3-1.8 1.5-.3 2.9-.6 4.2-.8 1.3-.3 2.5-.6 3.5-.8 4.4-1.1 6.8-1.5 6.8-1.3z"/><path stroke="#000" stroke-miterlimit="10" d="M780.8 926.1c-.2-.1 1.4-2.5 4.5-6.6.8-1 1.6-2.2 2.6-3.4.9-1.3 2-2.6 2.9-4.1.9-1.5 1.6-3.2 1.8-5.1.1-.9 0-1.9-.1-2.9-.2-1-.4-2-.8-3-.7-2-1.8-4.1-3.2-6.2-.6-1-1.4-2.1-2.2-3.1-.8-1-1.5-2.1-2.3-3.2-.8-1.1-1.7-2.1-2.6-3.2-.4-.5-.9-1.1-1.3-1.6s-.9-1.1-1.4-1.6c-1-1.1-1.9-2.1-2.9-3.2-1-1-2.1-2.1-3.1-3.2-8.5-8.5-19-16.7-30.6-24.5-11.6-7.7-23.2-14.4-33.7-20.5-10.6-6-20-11.5-28-16.2-7.9-4.6-14.3-8.5-18.7-11.1-4.4-2.7-6.8-4.3-6.7-4.5s2.7 1 7.3 3.4 11.2 5.9 19.2 10.2c8.1 4.4 17.7 9.7 28.3 15.6 10.6 5.9 22.3 12.6 34 20.4 5.9 3.9 11.5 8 16.7 12.2 5.2 4.2 10 8.6 14.3 12.9 1.1 1.1 2.1 2.2 3.1 3.3 1 1.1 2 2.2 2.9 3.3.5.6 1 1.1 1.4 1.6.4.6.9 1.1 1.3 1.7.9 1.1 1.7 2.2 2.6 3.3.8 1.1 1.6 2.2 2.3 3.3.8 1.1 1.5 2.1 2.2 3.3 1.3 2.2 2.5 4.4 3.2 6.8.4 1.2.6 2.3.8 3.5.1 1.2.1 2.3 0 3.4-.2 1.1-.4 2.2-.8 3.2s-.9 1.8-1.4 2.6c-1.1 1.6-2.2 2.9-3.2 4.1-1 1.2-1.9 2.3-2.8 3.3-3.4 3.9-5.4 6-5.6 5.8zM695 938.1c-1-.1.7-12.4-1.6-27.2-2.1-14.9-7.3-26.1-6.4-26.5.4-.2 2.2 2.4 4.2 7 1 2.3 2.1 5.1 3 8.4.9 3.2 1.8 6.8 2.3 10.7.6 3.8.8 7.5.8 10.9 0 3.4-.2 6.4-.5 8.9-.4 4.9-1.4 7.9-1.8 7.8zM702.2 933.1c-.9-.2.4-8.6-.4-19-.7-10.4-3.2-18.5-2.3-18.9.4-.1 1.6 1.7 2.8 5.1 1.2 3.3 2.4 8.1 2.8 13.6.4 5.4-.1 10.3-.8 13.8-.8 3.4-1.7 5.4-2.1 5.4z"/><path stroke="#000" stroke-miterlimit="10" d="M682.9 819.7c.2.4-1.4 2.1-4.6 4.4-1.6 1.1-3.7 2.4-6.2 3.3-1.3.5-2.7.9-4.2 1-1.5.2-3.1.2-4.7-.1-2.5-.4-4.6-1.4-6.4-2.4-1.9-1-3.5-2.1-4.9-3.1-2.8-2.1-4.7-4.2-5.7-5.5l.7.1c-.2 0-.4.3-.5.4-.1.2-.1.3-.2.4-.1.1-.3 0-.4-.4-.1-.3-.1-1 .5-1.5l.3-.2.5.3c1.3.9 3.5 2.5 6.3 4.2 1.4.9 3 1.7 4.8 2.6 1.8.8 3.6 1.6 5.6 2 1.3.2 2.6.3 3.8.1 1.2-.1 2.5-.4 3.6-.7 2.3-.7 4.3-1.6 6-2.5 3.2-1.7 5.4-2.8 5.7-2.4zM515.4 814.6c.3.2-.7 2.4-3.4 4.9-2.7 2.5-7.3 5.3-13.1 6.2-5.7.9-11-.4-14.3-2-3.4-1.6-5-3.3-4.7-3.7.3-.4 2.3.6 5.5 1.5 3.3.9 8 1.7 13 .9 5.1-.8 9.3-2.9 12.2-4.8 2.8-1.8 4.4-3.3 4.8-3z"/><path stroke="#000" stroke-miterlimit="10" d="M504.6 801c.2.4-7.3 4.7-19 11.9-11.7 7.3-27.7 17.9-44.4 30.9s-30.8 25.9-40.7 35.6c-9.9 9.7-14.8 16.7-15.2 16.5-.2-.1.8-2.1 3-5.3 2.2-3.2 5.7-7.7 10.5-12.8 9.6-10.1 23.5-23.5 40.3-36.5 16.7-13.1 33.1-23.4 45.2-30.3 6.1-3.4 11.1-6 14.6-7.7 3.6-1.7 5.6-2.5 5.7-2.3zM494.7 667.4c-.3.2-3.9-4.5-8.3-13-.5-1.1-1.1-2.2-1.7-3.3-.6-1.2-1.1-2.4-1.7-3.7-1.2-2.5-2.3-5.3-3.4-8.3-2.2-5.9-4.3-12.5-6-19.6-1.6-7.1-2.7-14-3.3-20.2-.3-3.1-.5-6.1-.6-8.9 0-1.4-.1-2.8-.1-4.1v-3.7c.2-9.5 1.3-15.3 1.7-15.3.5 0 .3 5.9.6 15.3.1 1.2.1 2.4.2 3.7.1 1.3.2 2.6.3 4 .2 2.8.5 5.7.9 8.8.8 6.1 1.9 12.9 3.5 19.8 1.7 7 3.6 13.5 5.6 19.3 1.1 2.9 2 5.7 3.1 8.2.5 1.3 1 2.5 1.5 3.7.5 1.2 1 2.3 1.5 3.4 3.8 8.5 6.6 13.7 6.2 13.9zM484.2 670.9c-.8.4-5.5-6.5-9.3-16-3.9-9.5-5.4-17.7-4.6-17.9.9-.2 3.7 7.4 7.6 16.7 3.8 9.3 7.1 16.7 6.3 17.2zM678.7 655.1c.2.1-.4 2-1.7 5.3-.3.8-.7 1.7-1.1 2.7-.4 1-.8 2.1-1.2 3.3-.8 2.4-1.9 5-2.8 8.1-.5 1.5-1 3.1-1.5 4.7s-1 3.4-1.5 5.2c-1.1 3.6-1.9 7.5-2.9 11.5-1.7 8.2-3.2 17.3-4 26.9-.7 9.6-.7 18.8-.3 27.2.3 4.2.5 8.1 1 11.8.2 1.8.4 3.6.6 5.3.3 1.7.5 3.3.8 4.9.4 3.1 1.1 5.9 1.5 8.4.2 1.2.5 2.4.7 3.5.2 1.1.5 2 .7 2.9.8 3.5 1.1 5.4.9 5.5s-.9-1.8-2.1-5.2c-.3-.9-.6-1.8-.9-2.8-.3-1-.6-2.2-.9-3.4-.6-2.5-1.4-5.3-2-8.4-.3-1.6-.6-3.2-1-4.9-.3-1.7-.5-3.5-.8-5.4-.6-3.7-.9-7.8-1.3-12-.6-8.5-.7-17.8.1-27.6.8-9.8 2.4-19 4.3-27.3 1.1-4.1 2-8 3.2-11.6.6-1.8 1.1-3.6 1.7-5.2.6-1.6 1.2-3.2 1.7-4.7 1.1-3 2.3-5.7 3.3-8 .5-1.2 1-2.3 1.5-3.2.5-1 1-1.9 1.4-2.7 1.4-3.2 2.4-4.9 2.6-4.8zM656.2 938.5c-1-.1-.1-9.8-2.6-21.4-2.3-11.6-7-20.1-6.2-20.6.4-.2 2 1.7 4 5.2 1 1.8 2 3.9 3 6.4.9 2.5 1.8 5.3 2.4 8.3.6 3 1 5.9 1.1 8.6.1 2.7.1 5.1-.1 7.1-.4 4.1-1.2 6.5-1.6 6.4zM648.1 934.7c-.9.1-2.7-7-4.8-15.7-1.1-4.4-2-8.3-3-10.9-1-2.7-2-4.2-1.6-4.5.3-.3 2 .8 3.7 3.5.8 1.3 1.6 3 2.3 4.9.7 1.9 1.3 4 1.8 6.2 2.1 8.9 2.4 16.4 1.6 16.5zM637.8 931.9c-.9 0-1.6-4.8-2.8-10.5-1.2-5.7-2.5-10.4-1.6-10.7.8-.4 3.6 4 4.8 10.1 1.2 6 .4 11.1-.4 11.1zM596.4 944.6c-.4-.2-.1-2.1.2-5.2.3-3.1.5-7.3-.1-11.9-.7-4.6-1.9-8.8-2.3-12-.5-3.2-.3-5.3.2-5.3s1.1 1.8 2.1 4.8c.5 1.5 1.1 3.2 1.7 5.3.6 2 1.2 4.3 1.6 6.8.7 5 .1 9.6-.9 12.8-.9 3.1-2.1 4.8-2.5 4.7z"/><path stroke="#000" stroke-miterlimit="10" d="M607.1 956.5c-.5-.1-.7-1.2-1-2.9-.3-1.7-.8-4-2-6-1.2-1.9-3-3.2-4.4-3.7-1.4-.6-2.6-.6-2.7-1-.1-.2.2-.5.7-.8.5-.3 1.4-.5 2.4-.4 2.1.1 5 1.5 6.8 4.3 1.7 2.8 1.8 5.7 1.5 7.6-.3 1.9-.9 3-1.3 2.9zM593.2 1032.9c-.9-.3 4.5-16.3 7.7-36.7 3.3-20.4 3.1-37.3 4.1-37.3.4 0 1 4.2 1.1 11.1.1 3.4 0 7.5-.3 12.1-.3 4.5-.9 9.5-1.7 14.7-.8 5.2-1.9 10.1-3 14.5s-2.3 8.3-3.4 11.6c-2.3 6.3-4.1 10.1-4.5 10zM596.5 961.6c.4-.1 1.5 1.6 2 4.7.1.8.2 1.6.3 2.6v1.5c0 .3 0 .6-.1 1s-.2.9-.8 1.4l-.1.1-.1.1-.1.1c-.1.1-.3.2-.4.2l-.2.1h-.4c-.1 0-.2-.1-.3-.1-.1 0-.1 0-.2.1 0 .1.1.1.1.2l.2.4c.4.9.9 1.7 1.3 2.5.6 1.2 1.1 2.3 1.6 3.4l-2.4 1.5c-2.8-4.2-5.4-6.8-4.9-7.3.3-.5 3.7 1.3 7.2 5.5l-2.4 1.5c-.6-1-1.2-2.1-1.9-3.2-.3-.6-.6-1.2-1-1.8-.5-1-1-2-1.6-3-.1-.2-.3-.5-.3-.6v-.4c0-.3 0-.6-.1-.9V970.5l.1-.1c.3-.2.6-.4.8-.5.4-.1.8-.2 1.5-.1.3 0 .9.1 1.4.3.1.1.3.1.4.2l.2.2.1.5v.1s.1 0 0 0-.1-.1-.3-.2l-.2-.1c-.1 0 0 0 0 0 0-.1.1-.2.1-.4.1-.4.1-.9.1-1.3.1-.8.1-1.6.1-2.3.1-3.2-.2-5.1.3-5.2zM457.9 933.8c-.2.5-3.3-1-8.6-2-5.2-1.1-12.7-1.6-20.5.6-7.8 2.2-13.9 6.4-17.8 10-3.9 3.6-5.9 6.4-6.3 6.2-.3-.2.9-3.5 4.7-7.8 1.9-2.1 4.4-4.4 7.5-6.5 3.1-2.1 6.9-3.9 11.1-5.1 4.2-1.1 8.4-1.5 12.1-1.4 3.8.2 7.1.8 9.8 1.7 5.4 1.8 8.2 4 8 4.3zM451.8 919.9c-.1.5-3.2.2-8-.1-4.9-.2-11.6-.3-18.8 1.3-7.1 1.6-13.1 4.8-16.9 7.7-3.8 2.9-5.7 5.3-6.2 5-.3-.2.9-3.2 4.7-6.8 3.7-3.6 10-7.4 17.6-9.1 7.7-1.7 14.8-1.2 19.7-.4 5 .9 7.9 2 7.9 2.4zM469.2 983.2c0 .5-2.8.6-7.1.9-2.2.1-4.7.3-7.5.7-2.8.4-5.7 1.1-8.6 2.3-.7.3-1.4.7-2.1 1-.6.4-1.3.7-1.9 1.2-1.2.8-2.3 1.7-3.3 2.6-2 1.9-3.5 3.9-4.8 5.6-2.5 3.5-3.9 5.8-4.3 5.6-.4-.2.3-2.8 2.3-6.8 1-2 2.5-4.3 4.6-6.5 1-1.1 2.3-2.2 3.7-3.1.7-.5 1.4-.9 2.2-1.4.8-.4 1.5-.8 2.4-1.1 3.3-1.4 6.6-2 9.5-2.3 3-.3 5.6-.2 7.8 0 4.5.2 7.2.8 7.1 1.3z"/><path stroke="#000" stroke-miterlimit="10" d="M470.2 987.3c0 .5-2 .9-5 1.7-.8.2-1.6.5-2.5.8-.9.3-1.8.6-2.8 1-1.9.8-4 1.8-6 2.9-2 1.2-3.9 2.5-5.5 3.8-.8.7-1.6 1.3-2.2 1.9-.7.6-1.3 1.2-1.9 1.8-2.2 2.2-3.5 3.8-4 3.5-.4-.2.3-2.2 2.2-5 .5-.7 1-1.4 1.7-2.2.6-.8 1.4-1.5 2.2-2.3 1.6-1.5 3.6-3 5.8-4.4 2.2-1.3 4.5-2.3 6.7-3 1.1-.3 2.1-.6 3.1-.8 1-.2 1.9-.3 2.7-.4 3.4-.1 5.5.3 5.5.7zM472.1 999.5c0 .9-5.7 1.3-11.9 3.8-6.3 2.4-10.7 5.8-11.4 5.2-.3-.3.5-1.6 2.2-3.3 1.7-1.7 4.6-3.6 8-4.9 3.5-1.3 6.8-1.8 9.2-1.7 2.4 0 3.9.4 3.9.9zM456.7 443c-.2 0-.3-3.2-.2-8.8.1-5.7.3-13.9.7-24 .2-5.1.4-10.6.6-16.6.2-6 .5-12.3.7-19 .1-3.3.2-6.8.3-10.3 0-1.7.1-3.5.1-5.3v-5.4c-.1-7.3-.5-14.8-.8-22.5-1.2-30.9-2.1-59-2.6-79.2-.2-10.1-.4-18.4-.4-24 0-5.7.1-8.8.3-8.8.2 0 .6 3.1 1 8.8.4 5.7.9 13.9 1.5 24 1.1 20.3 2.4 48.3 3.6 79.2.3 7.7.6 15.3.7 22.6v5.5c0 1.8-.1 3.6-.2 5.3-.1 3.5-.3 7-.4 10.3-.2 6.7-.7 13.1-1 19-.4 6-.7 11.5-1 16.6-.6 10.1-1.2 18.3-1.7 24s-1 8.6-1.2 8.6zM686.1 213.8c0 .2-3.1.5-8.7.8-5.6.3-13.7.7-23.7 1.1-10 .4-22 .8-35.2 1.2-13.3.4-27.9.6-43.2.5-15.3-.1-30-.8-43.2-1.3-13.2-.5-25.1-.5-35.1 0s-18.1 1.2-23.7 1.6c-5.6.4-8.7.6-8.7.3 0-.2 3-.8 8.6-1.6s13.6-1.8 23.7-2.6c10-.8 22.1-1 35.4-.7 13.3.3 27.8.9 43.1 1 15.3.1 29.9-.1 43.1-.3 13.3-.2 25.2-.4 35.2-.5 10-.1 18.2-.1 23.8-.1 5.4.2 8.6.3 8.6.6zM691.2 294.2c-.9 0-1.4-17-1.7-37.9-.3-20.9-.4-37.9.6-37.9.9 0 2.4 16.9 2.7 37.9.3 20.9-.7 37.9-1.6 37.9zM684 307c-.1.2-1.8-.2-4.9-1.1-3.1-.8-7.6-2.2-13.2-2-2.8.1-5.8.6-9.1 1.4-3.2.9-6.8 1.8-10.1 3.2-3.3 1.4-6.4 3.7-8.7 6.9-2.3 3.1-3.9 6.9-4.2 11-.3 4.1.6 8.2 2.4 11.6 1.8 3.4 4.5 6.2 7.5 8.2 3 2 6.3 3.3 9.5 4.1 3.2.8 6.3 1.1 9.1 1.1 5.7.1 10.3-.7 13.5-1.2 3.2-.5 5-.8 5-.6.1.2-1.6.9-4.8 1.8-3.1.9-7.8 2-13.7 2.2-3 .1-6.2-.1-9.7-.8-3.4-.7-7.1-2-10.5-4.2-3.4-2.1-6.6-5.2-8.7-9.2-2.1-3.9-3.2-8.6-2.8-13.3.3-4.7 2.2-9.2 4.9-12.7s6.3-6.2 10.1-7.7c1.9-.8 3.7-1.3 5.5-1.8 1.8-.5 3.5-.9 5.2-1.3 3.4-.7 6.6-1.2 9.7-1.1 3 0 5.7.6 8 1.2s4.1 1.3 5.7 1.9c2.8 1.3 4.4 2.2 4.3 2.4zM685.1 453.9c-.5 0-.4-5.8-.2-15 .3-9.2.6-22 1-36.1.3-14.1.6-26.9.8-36.1.2-9.2.5-15 1-15 .4 0 1 5.7 1.3 15 .4 9.3.5 22.1.1 36.2-.4 14.1-1.2 26.9-2 36.1-.8 9.3-1.6 15-2 14.9zM640.8 452.6c0 .4-5.2 1-13.7 1.3-8.5.3-20.2.4-33.2 0-13-.5-24.7-1.3-33.1-2.2-8.5-.9-13.6-1.8-13.6-2.2 0-.5 5.3-.4 13.8-.1 8.5.3 20.2.8 33.1 1.3 12.9.4 24.6.7 33.1 1 8.3.1 13.5.4 13.6.9zM524.4 443.2c0 .9-14.1 1.8-31.6 2-8.7.1-16.6 0-22.3-.2-2.9-.1-5.2-.3-6.8-.5-1.6-.2-2.5-.5-2.5-.8 0-.2.9-.4 2.5-.5 1.6-.1 3.9-.3 6.7-.5 5.7-.4 13.6-.6 22.3-.7 17.5-.3 31.6.3 31.7 1.2z"/><ellipse cx="675.2" cy="404.7" stroke="#000" stroke-miterlimit="10" rx="29" ry="1.6" transform="rotate(90.806 675.232 404.748)"/><path stroke="#000" stroke-miterlimit="10" d="M694.9 231.5c-.9-.1-1.3-6.6-1.5-14.6-.2-8-.1-14.5.8-14.6.9-.1 2.3 6.4 2.5 14.6.2 8.1-.9 14.7-1.8 14.6zM706.7 272c-.9.1-2.8-16.4-3.3-36.9s.5-37 1.4-37c.9 0 1.3 16.6 1.9 36.9.4 20.4.9 37 0 37zM446.5 267.3c-.9.1-3.7-16.6-5-37.5-1.4-20.9-.7-37.8.2-37.8.9 0 1.7 16.9 3.1 37.6 1.2 20.8 2.6 37.6 1.7 37.7z"/></g></svg>